<svg width="3250" height="2000" viewBox="0 0 3250 2000" fill="none" xmlns="http://www.w3.org/2000/svg">
<path d="M492.88 1929.25C271.88 1719.08 -30.12 1502.06 88.29 1174.25C166.19 958.62 357.19 898.52 516 765.56C594.3 700 545 604.44 543.57 509.64C540.25 266.88 850.41 78.5098 1135.57 82.4398C1444.43 86.6998 1578.13 357.93 1837.22 372.44C1938.96 373.81 2030.06 321.65 2120.07 280.23C2386.78 157.5 2810 235.78 2831.39 532.64C2836.91 692.96 2628.01 950.88 2837.31 1035.2C3004.12 1102.4 3172.63 1127.2 3202.69 1367.52C3242 1682.12 3034 1854.78 2763 1935.74L492.88 1929.25Z" fill="#E3EAFF"/>
<path d="M698.11 467.35H949.65C964.598 467.358 978.931 473.302 989.497 483.874C1000.06 494.446 1006 508.782 1006 523.73V641C1006 655.953 1000.06 670.293 989.487 680.867C978.913 691.44 964.573 697.38 949.62 697.38H947.76L968 765C968.195 765.647 968.179 766.339 967.957 766.977C967.734 767.615 967.315 768.166 966.76 768.551C966.205 768.936 965.542 769.136 964.867 769.121C964.192 769.107 963.538 768.879 963 768.47L869.8 697.37H698.11C683.159 697.37 668.82 691.431 658.247 680.86C647.674 670.289 641.733 655.951 641.73 641V523.73C641.73 508.777 647.67 494.437 658.243 483.863C668.817 473.29 683.157 467.35 698.11 467.35V467.35Z" fill="white"/>
<path d="M949.53 565.81H708C700.6 565.81 693.502 562.871 688.268 557.639C683.034 552.407 680.093 545.31 680.09 537.91V537.91C680.093 530.509 683.034 523.411 688.268 518.178C693.501 512.944 700.599 510.003 708 510H949.5C956.902 510 964.001 512.94 969.235 518.175C974.469 523.409 977.41 530.508 977.41 537.91V537.91C977.41 545.306 974.473 552.4 969.245 557.631C964.017 562.863 956.926 565.805 949.53 565.81V565.81Z" fill="#E3EAFF"/>
<path d="M949.53 651H708C700.599 650.997 693.501 648.056 688.268 642.822C683.034 637.589 680.093 630.491 680.09 623.09V623.09C680.103 615.697 683.05 608.61 688.282 603.387C693.515 598.164 700.606 595.23 708 595.23H949.5C953.165 595.229 956.794 595.949 960.18 597.351C963.566 598.752 966.643 600.807 969.235 603.398C971.827 605.989 973.883 609.065 975.285 612.451C976.688 615.836 977.41 619.465 977.41 623.13V623.13C977.399 630.52 974.458 637.604 969.232 642.829C964.005 648.054 956.92 650.992 949.53 651V651Z" fill="#E3EAFF"/>
<path d="M2533.42 321.79H2278.72C2271.22 321.79 2263.8 323.267 2256.87 326.136C2249.95 329.005 2243.65 333.21 2238.35 338.511C2233.05 343.813 2228.84 350.106 2225.98 357.033C2223.11 363.959 2221.63 371.383 2221.63 378.88V497.61C2221.63 505.107 2223.11 512.531 2225.98 519.457C2228.84 526.384 2233.05 532.677 2238.35 537.979C2243.65 543.28 2249.95 547.485 2256.87 550.354C2263.8 553.223 2271.22 554.7 2278.72 554.7H2280.61L2260.16 623.18C2259.97 623.836 2259.98 624.537 2260.21 625.182C2260.44 625.828 2260.87 626.385 2261.43 626.774C2261.99 627.163 2262.66 627.364 2263.35 627.349C2264.03 627.334 2264.69 627.103 2265.24 626.69L2359.62 554.69H2533.42C2548.56 554.69 2563.08 548.675 2573.79 537.969C2584.5 527.262 2590.51 512.741 2590.51 497.6V378.88C2590.51 371.383 2589.03 363.959 2586.16 357.033C2583.3 350.106 2579.09 343.813 2573.79 338.511C2568.49 333.21 2562.19 329.005 2555.27 326.136C2548.34 323.267 2540.92 321.79 2533.42 321.79V321.79Z" fill="white"/>
<path d="M2533.02 370.32H2273.08C2261.32 370.32 2251.79 379.852 2251.79 391.61V400.85C2251.79 412.608 2261.32 422.14 2273.08 422.14H2533.02C2544.78 422.14 2554.31 412.608 2554.31 400.85V391.61C2554.31 379.852 2544.78 370.32 2533.02 370.32Z" fill="#E3EAFF"/>
<path d="M2410.71 448.67H2281.38C2269.62 448.67 2260.09 458.202 2260.09 469.96V479.2C2260.09 490.958 2269.62 500.49 2281.38 500.49H2410.71C2422.47 500.49 2432 490.958 2432 479.2V469.96C2432 458.202 2422.47 448.67 2410.71 448.67Z" fill="#E3EAFF"/>
<path d="M281.33 1330C294.043 1320.4 309.3 1315.6 327.1 1315.59C365.52 1315.59 385.86 1336.5 385.86 1365.88C385.86 1382.83 377.66 1400.06 361 1417.29C339.81 1439.61 324.55 1450.63 314.95 1450.63C312.828 1450.65 310.723 1450.25 308.758 1449.45C306.793 1448.65 305.008 1447.47 303.508 1445.96C302.008 1444.46 300.823 1442.68 300.023 1440.71C299.224 1438.75 298.825 1436.64 298.85 1434.52C298.85 1426.61 306.19 1418.7 318.85 1407.12C319.519 1406.36 320.282 1405.69 321.12 1405.12C335.52 1391.84 340.04 1384.49 340.04 1375.45C340.04 1364.15 332.41 1357.94 321.4 1357.94C316.31 1357.94 310.4 1359.07 303.32 1361.33C296.24 1363.59 291.17 1364.72 288.06 1364.72C280.15 1364.72 271.11 1357.94 271.11 1346.64C271.16 1340.76 274.55 1335.11 281.33 1330ZM320 1518.45C302.76 1518.45 291.18 1505.45 291.18 1489.63C291.18 1476.07 302.76 1463.08 320 1463.08C335 1463.08 346.55 1476.08 346.55 1489.63C346.59 1505.17 335.57 1518.45 320 1518.45Z" fill="white"/>
<path d="M2589.2 696.12C2597.57 689.8 2607.61 686.64 2619.3 686.64C2644.57 686.64 2657.94 700.39 2657.94 719.71C2657.94 730.86 2652.56 742.19 2641.6 753.52C2627.66 768.2 2617.6 775.44 2611.31 775.44C2609.91 775.456 2608.53 775.193 2607.24 774.667C2605.95 774.14 2604.77 773.361 2603.79 772.374C2602.8 771.388 2602.02 770.214 2601.49 768.922C2600.97 767.63 2600.7 766.245 2600.72 764.85C2600.72 759.65 2605.55 754.45 2613.91 746.85C2614.36 746.362 2614.86 745.926 2615.4 745.55C2624.88 736.82 2627.85 731.99 2627.85 726.05C2627.85 718.62 2622.85 714.53 2615.59 714.53C2611.54 714.661 2607.53 715.413 2603.7 716.76C2599.03 718.24 2595.7 718.983 2593.7 718.99C2590.65 718.875 2587.77 717.562 2585.69 715.336C2583.6 713.109 2582.48 710.15 2582.56 707.1C2582.52 703.18 2584.75 699.46 2589.2 696.12ZM2614.66 820C2603.32 820 2595.71 811.45 2595.71 801.05C2595.71 792.13 2603.32 783.59 2614.66 783.59C2624.5 783.59 2632.12 792.13 2632.12 801.05C2632.12 811.3 2624.88 820 2614.66 820Z" fill="white"/>
<path d="M3144.89 1382.7H2792.17C2789.18 1382.7 2786.31 1381.51 2784.19 1379.39C2782.07 1377.27 2780.88 1374.4 2780.88 1371.41V1067.79C2780.88 1064.8 2782.07 1061.92 2784.19 1059.81C2786.3 1057.69 2789.18 1056.5 2792.17 1056.5C2795.16 1056.5 2798.04 1057.69 2800.15 1059.81C2802.27 1061.92 2803.46 1064.8 2803.46 1067.79V1360.12H3144.89C3147.88 1360.12 3150.76 1361.31 3152.87 1363.43C3154.99 1365.54 3156.18 1368.42 3156.18 1371.41C3156.18 1374.4 3154.99 1377.28 3152.87 1379.39C3150.76 1381.51 3147.88 1382.7 3144.89 1382.7V1382.7Z" fill="white"/>
<path d="M2818.87 1308.48C2816.65 1308.48 2814.49 1307.83 2812.64 1306.6C2810.79 1305.38 2809.34 1303.64 2808.48 1301.59C2807.61 1299.55 2807.37 1297.3 2807.77 1295.12C2808.18 1292.94 2809.22 1290.93 2810.76 1289.34L2924.76 1171.42C2926.58 1169.54 2929 1168.35 2931.6 1168.05C2934.21 1167.75 2936.83 1168.37 2939.03 1169.79L2992.93 1204.79L3049.78 1138.79C3051.73 1136.52 3054.51 1135.12 3057.5 1134.89C3060.48 1134.67 3063.43 1135.64 3065.71 1137.59C3067.98 1139.55 3069.38 1142.32 3069.6 1145.31C3069.82 1148.3 3068.85 1151.25 3066.9 1153.52L3003.61 1227C3001.83 1229.07 2999.36 1230.43 2996.66 1230.82C2993.95 1231.2 2991.2 1230.6 2988.91 1229.11L2934.53 1193.84L2827 1305C2825.95 1306.1 2824.69 1306.97 2823.29 1307.57C2821.89 1308.17 2820.39 1308.48 2818.87 1308.48V1308.48Z" fill="white"/>
<path d="M3067.13 1187.12L3051.05 1154.53L3016.43 1143.48L3093.5 1105.2L3067.13 1187.12Z" fill="white"/>
<path d="M994.28 350C980.765 350 967.554 345.992 956.317 338.483C945.08 330.975 936.322 320.303 931.15 307.816C925.979 295.33 924.626 281.591 927.264 268.336C929.901 255.081 936.41 242.905 945.967 233.35C955.524 223.794 967.7 217.287 980.956 214.652C994.211 212.016 1007.95 213.371 1020.44 218.544C1032.92 223.717 1043.59 232.477 1051.1 243.715C1058.61 254.953 1062.61 268.165 1062.61 281.68C1062.59 299.795 1055.38 317.161 1042.57 329.97C1029.76 342.778 1012.39 349.981 994.28 350V350ZM994.28 232.17C984.488 232.17 974.916 235.074 966.774 240.514C958.632 245.954 952.286 253.686 948.539 262.733C944.791 271.78 943.811 281.735 945.721 291.339C947.632 300.943 952.347 309.765 959.271 316.689C966.195 323.613 975.017 328.328 984.621 330.239C994.225 332.149 1004.18 331.168 1013.23 327.421C1022.27 323.674 1030.01 317.328 1035.45 309.186C1040.89 301.044 1043.79 291.472 1043.79 281.68C1043.78 268.553 1038.56 255.968 1029.27 246.686C1019.99 237.404 1007.41 232.183 994.28 232.17V232.17Z" fill="white"/>
<path d="M2859.74 825.49C2849.85 825.49 2840.18 822.558 2831.96 817.063C2823.74 811.569 2817.33 803.76 2813.55 794.624C2809.76 785.488 2808.77 775.435 2810.7 765.735C2812.63 756.036 2817.39 747.127 2824.38 740.135C2831.38 733.142 2840.29 728.38 2849.99 726.451C2859.68 724.521 2869.74 725.512 2878.87 729.296C2888.01 733.08 2895.82 739.489 2901.31 747.711C2906.81 755.934 2909.74 765.601 2909.74 775.49C2909.71 788.743 2904.44 801.445 2895.07 810.816C2885.7 820.187 2872.99 825.464 2859.74 825.49V825.49ZM2859.74 739.18C2852.57 739.18 2845.56 741.307 2839.59 745.291C2833.63 749.275 2828.98 754.938 2826.24 761.564C2823.5 768.19 2822.78 775.48 2824.18 782.514C2825.58 789.548 2829.03 796.009 2834.1 801.08C2839.17 806.151 2845.63 809.604 2852.67 811.003C2859.7 812.402 2866.99 811.684 2873.62 808.94C2880.24 806.195 2885.9 801.548 2889.89 795.585C2893.87 789.622 2896 782.612 2896 775.44C2895.99 765.827 2892.16 756.612 2885.37 749.815C2878.57 743.018 2869.35 739.193 2859.74 739.18V739.18Z" fill="#E3EAFF"/>
<path d="M232.42 1099.84C223.531 1099.84 214.842 1097.21 207.45 1092.27C200.058 1087.33 194.297 1080.32 190.894 1072.1C187.491 1063.89 186.599 1054.86 188.332 1046.14C190.065 1037.42 194.345 1029.41 200.629 1023.13C206.914 1016.84 214.921 1012.56 223.639 1010.82C232.357 1009.09 241.393 1009.98 249.605 1013.38C257.818 1016.78 264.837 1022.54 269.776 1029.93C274.714 1037.32 277.35 1046.01 277.35 1054.9C277.334 1066.81 272.596 1078.23 264.173 1086.66C255.751 1095.08 244.332 1099.82 232.42 1099.84ZM232.42 1022.34C225.981 1022.34 219.688 1024.26 214.336 1027.84C208.984 1031.42 204.814 1036.5 202.353 1042.45C199.891 1048.4 199.249 1054.95 200.508 1061.26C201.767 1067.58 204.869 1073.38 209.424 1077.93C213.978 1082.48 219.78 1085.58 226.095 1086.84C232.411 1088.09 238.956 1087.44 244.905 1084.98C250.853 1082.51 255.937 1078.34 259.514 1072.99C263.091 1067.63 265 1061.34 265 1054.9C264.989 1046.26 261.553 1037.99 255.445 1031.88C249.336 1025.78 241.056 1022.35 232.42 1022.34V1022.34Z" fill="white"/>
<path d="M1931.82 448.67C1931.82 453.506 1930.39 458.233 1927.7 462.254C1925.01 466.275 1921.19 469.409 1916.73 471.259C1912.26 473.11 1907.34 473.594 1902.6 472.65C1897.86 471.707 1893.5 469.378 1890.08 465.959C1886.66 462.54 1884.33 458.183 1883.39 453.44C1882.45 448.697 1882.93 443.781 1884.78 439.314C1886.63 434.846 1889.77 431.027 1893.79 428.341C1897.81 425.654 1902.53 424.22 1907.37 424.22C1913.85 424.22 1920.07 426.796 1924.66 431.381C1929.24 435.967 1931.82 442.186 1931.82 448.67V448.67Z" fill="white"/>
<path d="M498.38 535C498.38 544.508 495.561 553.801 490.279 561.706C484.997 569.611 477.489 575.773 468.706 579.411C459.922 583.049 450.257 584.001 440.932 582.147C431.607 580.292 423.042 575.713 416.319 568.991C409.597 562.268 405.018 553.703 403.164 544.378C401.309 535.054 402.261 525.388 405.899 516.605C409.537 507.821 415.699 500.313 423.604 495.031C431.509 489.749 440.803 486.93 450.31 486.93C463.059 486.93 475.286 491.995 484.301 501.01C493.316 510.024 498.38 522.251 498.38 535V535Z" fill="#E3EAFF"/>
<path d="M1874.9 281.68C1874.9 288.828 1872.78 295.815 1868.81 301.758C1864.84 307.702 1859.19 312.334 1852.59 315.069C1845.99 317.804 1838.72 318.52 1831.71 317.126C1824.7 315.731 1818.26 312.289 1813.21 307.235C1808.15 302.181 1804.71 295.741 1803.31 288.731C1801.92 281.72 1802.64 274.454 1805.37 267.85C1808.11 261.246 1812.74 255.602 1818.68 251.631C1824.62 247.66 1831.61 245.54 1838.76 245.54C1843.51 245.54 1848.21 246.475 1852.59 248.291C1856.97 250.107 1860.96 252.769 1864.31 256.125C1867.67 259.481 1870.33 263.465 1872.15 267.85C1873.97 272.235 1874.9 276.934 1874.9 281.68V281.68Z" fill="#E3EAFF"/>
<path d="M2964.15 855.33C2964.15 861.432 2962.34 867.398 2958.96 872.473C2955.57 877.548 2950.75 881.504 2945.11 883.84C2939.47 886.176 2933.27 886.788 2927.28 885.598C2921.3 884.408 2915.8 881.469 2911.49 877.154C2907.17 872.839 2904.23 867.341 2903.04 861.356C2901.85 855.371 2902.46 849.167 2904.8 843.53C2907.14 837.892 2911.09 833.074 2916.17 829.685C2921.24 826.296 2927.21 824.488 2933.31 824.49C2941.49 824.493 2949.33 827.743 2955.11 833.526C2960.9 839.309 2964.15 847.152 2964.15 855.33V855.33Z" fill="#E3EAFF"/>
<path d="M2063.48 422.14C2063.48 429.746 2061.23 437.182 2057 443.508C2052.78 449.833 2046.78 454.764 2039.75 457.678C2032.72 460.591 2024.99 461.355 2017.53 459.874C2010.07 458.392 2003.22 454.732 1997.84 449.356C1992.45 443.98 1988.79 437.129 1987.3 429.669C1985.82 422.21 1986.57 414.477 1989.48 407.448C1992.39 400.42 1997.31 394.411 2003.64 390.182C2009.96 385.953 2017.39 383.694 2025 383.69C2030.05 383.687 2035.05 384.68 2039.72 386.611C2044.39 388.542 2048.63 391.373 2052.2 394.944C2055.78 398.515 2058.61 402.754 2060.55 407.42C2062.48 412.087 2063.48 417.088 2063.48 422.14Z" fill="white"/>
<path d="M1113.42 213.47C1134.96 213.47 1152.43 196.005 1152.43 174.46C1152.43 152.916 1134.96 135.45 1113.42 135.45C1091.88 135.45 1074.41 152.916 1074.41 174.46C1074.41 196.005 1091.88 213.47 1113.42 213.47Z" fill="white"/>
<path d="M1938.02 745.15H1937.97L1902.77 745.28L1894.8 828.42L1935.89 850.12L1979.71 828.66L1972.63 745.28L1938.02 745.15Z" fill="#F37A50"/>
<path d="M2010.33 680.86C2004.98 738.92 1963.67 782.58 1918.06 778.37C1872.45 774.16 1839.84 723.68 1845.2 665.62C1850.56 607.56 1891.86 563.9 1937.47 568.11C1983.08 572.32 2015.69 622.8 2010.33 680.86Z" fill="#F37A50"/>
<path d="M1905.56 686.38C1897.65 697.58 1887.66 711.23 1887.66 711.23C1887.66 711.23 1891.22 723.71 1907.37 724.79C1900.69 721.58 1894.19 716.6 1897.48 707.65C1900.77 698.7 1905.56 686.38 1905.56 686.38Z" fill="#DE623C"/>
<path d="M2027.18 633.68C2029.9 578.45 1978.58 562.41 1978.58 562.41C1978.58 562.41 1989.75 557.97 1986.33 541.41C1978.4 546.692 1968.98 549.27 1959.47 548.76C1896.31 545.05 1857.12 556.98 1864.37 581.39C1866.95 590.07 1826.37 596.21 1846.83 653.7C1850.44 646.7 1852.9 620.7 1864.91 614.55C1876.92 608.4 1870.48 628.78 1898.14 624.55C1926.05 620.27 1943.84 607.9 1964.71 618.16C1981.45 627.55 2004.56 693.73 2003.81 698.34C2005.52 687.77 2026 658 2027.18 633.68Z" fill="black"/>
<path d="M1846 697.17C1846 697.17 1852.62 728.34 1859.81 736.45C1860.75 722.88 1890.73 730.19 1903.66 730.81C1927.06 731.92 1949.91 710.27 1958.99 740.59C1988.76 741.12 1996.99 675.31 1996.99 675.31C2017.88 739.91 1981.23 791.01 1909.49 800.53C1862.19 806.8 1839.34 745.18 1846 697.17Z" fill="black"/>
<path d="M1924.74 746C1929.18 743.38 1933.26 740.197 1936.88 736.53C1937.35 736.031 1937.61 735.368 1937.6 734.683C1937.59 733.997 1937.32 733.341 1936.84 732.853C1936.35 732.365 1935.7 732.082 1935.02 732.065C1934.33 732.048 1933.67 732.297 1933.16 732.76C1924.29 741.53 1915.31 745.94 1906.49 745.87C1899.79 745.732 1893.37 743.163 1888.42 738.64C1887.92 738.166 1887.26 737.904 1886.58 737.908C1885.89 737.912 1885.23 738.182 1884.74 738.662C1884.25 739.141 1883.96 739.793 1883.94 740.479C1883.92 741.165 1884.17 741.832 1884.63 742.34C1890.52 747.877 1898.26 751.025 1906.34 751.17C1912.83 751.152 1919.19 749.364 1924.74 746Z" fill="#DE623C"/>
<path d="M1941.4 684.25C1943.04 684.295 1944.65 683.853 1946.04 682.979C1947.43 682.106 1948.53 680.841 1949.2 679.343C1949.87 677.846 1950.07 676.184 1949.8 674.568C1949.52 672.951 1948.77 671.453 1947.65 670.263C1946.52 669.072 1945.06 668.243 1943.46 667.879C1941.86 667.516 1940.19 667.635 1938.66 668.221C1937.13 668.808 1935.81 669.835 1934.86 671.173C1933.91 672.512 1933.38 674.101 1933.34 675.74C1933.28 677.937 1934.1 680.068 1935.61 681.664C1937.12 683.26 1939.2 684.19 1941.4 684.25V684.25Z" fill="black"/>
<path d="M1875.37 682.46C1877.01 682.505 1878.62 682.063 1880.01 681.189C1881.4 680.316 1882.5 679.051 1883.17 677.553C1883.84 676.056 1884.04 674.394 1883.77 672.778C1883.49 671.161 1882.74 669.663 1881.62 668.473C1880.49 667.282 1879.03 666.453 1877.43 666.089C1875.83 665.726 1874.16 665.845 1872.63 666.431C1871.1 667.018 1869.78 668.045 1868.83 669.383C1867.88 670.722 1867.35 672.311 1867.31 673.95C1867.25 676.147 1868.07 678.278 1869.58 679.874C1871.09 681.47 1873.17 682.4 1875.37 682.46V682.46Z" fill="black"/>
<path d="M1861.2 666.32C1861.89 666.336 1862.57 666.172 1863.18 665.847C1863.79 665.521 1864.3 665.043 1864.67 664.46C1866.81 661.06 1869.35 659.06 1872.21 658.46C1877.15 657.46 1881.92 660.92 1881.97 660.95C1882.82 661.466 1883.84 661.645 1884.82 661.451C1885.8 661.257 1886.67 660.705 1887.26 659.902C1887.85 659.1 1888.12 658.105 1888.02 657.113C1887.91 656.121 1887.44 655.203 1886.7 654.54C1886.39 654.32 1879.17 649.05 1870.79 650.63C1865.64 651.63 1861.32 654.8 1857.94 660.16C1857.38 661.055 1857.19 662.135 1857.43 663.166C1857.66 664.196 1858.29 665.093 1859.18 665.66C1859.78 666.055 1860.48 666.283 1861.2 666.32V666.32Z" fill="black"/>
<path d="M1957.54 669.33C1958.29 669.342 1959.02 669.144 1959.66 668.759C1960.3 668.375 1960.82 667.818 1961.16 667.153C1961.5 666.488 1961.65 665.74 1961.59 664.996C1961.53 664.251 1961.26 663.539 1960.81 662.94C1955.81 656.27 1950.07 652.56 1943.89 651.94C1938.92 651.497 1933.98 652.98 1930.07 656.08C1929.42 656.805 1929.06 657.741 1929.06 658.712C1929.05 659.684 1929.39 660.625 1930.03 661.36C1930.67 662.094 1931.55 662.573 1932.51 662.705C1933.47 662.838 1934.45 662.616 1935.26 662.08C1937.52 660.371 1940.35 659.569 1943.17 659.83C1947.03 660.27 1950.83 662.93 1954.47 667.73C1954.83 668.21 1955.29 668.603 1955.82 668.879C1956.35 669.156 1956.94 669.31 1957.54 669.33V669.33Z" fill="black"/>
<path d="M1997.73 675.54C1988.18 685.38 1986.97 699.69 1995.02 707.54C2003.07 715.39 2017.34 713.71 2026.89 703.87C2036.44 694.03 2037.65 679.72 2029.6 671.87C2021.55 664.02 2007.28 665.7 1997.73 675.54Z" fill="#F37A50"/>
<path d="M2007.82 703.12C2007.38 702.971 2006.98 702.721 2006.65 702.39C2001.76 697.5 2000.51 691.39 2003.31 686.08C2004.7 683.425 2006.89 681.269 2009.56 679.912C2012.23 678.556 2015.26 678.066 2018.23 678.51C2019 678.671 2019.67 679.124 2020.1 679.773C2020.54 680.423 2020.71 681.217 2020.57 681.986C2020.42 682.756 2019.99 683.44 2019.35 683.893C2018.71 684.346 2017.92 684.531 2017.15 684.41C2015.44 684.208 2013.72 684.526 2012.2 685.322C2010.67 686.118 2009.43 687.354 2008.62 688.87C2007.06 691.87 2007.87 695.13 2010.89 698.16C2011.39 698.634 2011.71 699.264 2011.8 699.945C2011.88 700.626 2011.74 701.316 2011.38 701.902C2011.02 702.487 2010.47 702.931 2009.82 703.16C2009.17 703.389 2008.47 703.389 2007.82 703.16V703.12Z" fill="#DE623C"/>
<path d="M1873.78 1832.81C1842.66 1875.75 1766.23 1849.41 1768.78 1907.49C1885.01 1906.74 1933.31 1907.49 1933.31 1907.49C1933.16 1894.15 1930.86 1862.49 1928.18 1850.09L1873.78 1832.81Z" fill="#201D40"/>
<path d="M2044.94 1832.81C2013.81 1875.75 1937.38 1849.41 1939.94 1907.49C2056.17 1906.74 2104.47 1907.49 2104.47 1907.49C2104.32 1894.15 2102.02 1862.49 2099.34 1850.09L2044.94 1832.81Z" fill="#201D40"/>
<path d="M1798.3 1177.54C1798.3 1177.54 1787.16 1461.47 1794.83 1522.66C1802.5 1583.85 1844.47 1652.37 1841.39 1854.76C1879.28 1864.25 1934.18 1854.76 1934.18 1854.76C1934.18 1854.76 1942.32 1625.91 1902.26 1523.7C1918.55 1424.41 1970.81 1196.99 1970.81 1196.99L1798.3 1177.54Z" fill="#748DDB"/>
<path d="M1879.56 1184.76C1879.56 1184.76 1917.67 1493.76 1936.32 1552.35C1954.97 1610.94 1983 1654.35 2016.76 1853.74C2055.7 1855.68 2091.28 1860.1 2091.28 1860.1C2091.28 1860.1 2109.04 1604.74 2048.4 1547.23C2046.35 1446.54 2044.22 1186.74 2044.22 1186.74L1879.56 1184.76Z" fill="#89A2F0"/>
<path d="M2067.35 834.08C2067.35 834.08 2001.17 810.91 1979.1 821.54C1910.53 854.54 1894.8 821.54 1894.8 821.54C1870.8 816.2 1813.93 816.2 1813.93 816.2C1806.74 912.2 1785.23 1218.68 1785.23 1218.68C1785.23 1218.68 1867.79 1238.27 1936.81 1238.76C2005.81 1238.32 2076.09 1219.91 2076.09 1219.91C2076.09 1219.91 2072.4 1085.74 2069.34 1035.86C2070.33 980 2067.35 907.75 2067.35 834.08Z" fill="#E62552"/>
<path d="M2067.35 834.08C2127.81 860.08 2202.01 920.08 2247.66 1015C2263.32 1047.56 2188.88 1054.14 2174.05 1041.3C2159.22 1028.46 2067.35 932.6 2067.35 932.6V834.08Z" fill="#C4204A"/>
<path d="M1813.93 816.2L1527.62 933.66L1541.91 1005.88L1807.2 930.51L1813.93 816.2Z" fill="#C4204A"/>
<path d="M1324.34 805.6C1288.25 805.27 1161.93 1001.98 1161.93 1001.98L1138.93 1232.75L1197.79 1235.07L1252.54 1033.43L1309.65 1003.31L1324.34 805.6Z" fill="#201D40"/>
<path d="M1608.53 1183L1609.25 1213.9C1609.25 1213.9 1587.25 1213.24 1586.43 1228.3L1607.13 1228.94C1607.13 1228.94 1619.73 1245.21 1601.67 1276.94C1594.47 1308.04 1617.27 1294.88 1618.83 1305.22C1621.14 1320.47 1651.24 1294.32 1656.03 1263.22C1662.21 1223.02 1654.03 1218.22 1654.03 1218.22L1644.92 1187.69L1608.53 1183Z" fill="#F37A50"/>
<path d="M1578.77 831.15C1614.02 838.92 1678.86 1048.09 1678.86 1048.09L1659.41 1208.09L1600.87 1201.54L1604.39 1076.82L1560.53 958.61L1578.77 831.15Z" fill="#201D40"/>
<path d="M1502 1841.4C1533.82 1883.84 1612 1857.8 1609.37 1915.2C1490.55 1914.46 1441.17 1915.2 1441.17 1915.2C1441.33 1902.02 1443.68 1870.72 1446.42 1858.47L1502 1841.4Z" fill="black"/>
<path d="M1324.18 1842.52C1356 1884.95 1434.18 1858.91 1431.55 1916.31C1312.73 1915.58 1263.35 1916.31 1263.35 1916.31C1263.5 1903.13 1265.85 1871.84 1268.59 1859.59L1324.18 1842.52Z" fill="black"/>
<path d="M1570.29 1191.73C1570.29 1191.73 1589.36 1465.13 1581.52 1525.61C1573.68 1586.09 1532.83 1664 1536 1864C1497.27 1873.37 1441.15 1864 1441.15 1864C1441.15 1864 1432.83 1637.83 1473.78 1536.81C1457.13 1438.68 1403.7 1213.93 1403.7 1213.93L1570.29 1191.73Z" fill="#201D40"/>
<path d="M1452.45 1201.3C1452.45 1201.3 1444.69 1506.3 1425.62 1564.23C1406.55 1622.16 1375.48 1660.31 1340.96 1857.35C1301.16 1859.28 1243.84 1860.1 1243.84 1860.1C1243.84 1860.1 1272 1611.72 1334 1554.88C1336.1 1455.37 1315.36 1202.88 1315.36 1202.88L1452.45 1201.3Z" fill="#2C2858"/>
<path d="M1505.72 797.83L1452.7 786.73L1399.21 795.29L1450.79 862.05L1505.72 797.83Z" fill="#95A6DB"/>
<path d="M1491.17 833.27C1479.09 841.089 1464.93 845.071 1450.55 844.692C1436.17 844.314 1422.24 839.593 1410.59 831.15L1411.74 749.28L1487.94 751.91L1491.17 833.27Z" fill="#F37A50"/>
<path d="M1382.19 822.44L1398.79 817.96L1399.21 795.29L1439.21 835.68L1451.42 839.07L1463.79 836.26L1505.69 797.83L1505.03 820.49L1518.73 824.9L1568.33 838.83L1542.48 1120L1551.56 1217.69C1481.98 1232.37 1406.36 1229.4 1333.81 1210.86L1347.17 1115.35L1325.98 835.35L1382.19 822.44Z" fill="#95A6DB"/>
<path d="M1464.11 868.19L1480.11 1085.46L1460.72 1108.61L1439.08 1089.31L1447.41 868.76L1464.11 868.19Z" fill="#2C2858"/>
<path d="M1477.2 841.58L1457.29 837.31L1435.2 842L1447.4 869.18L1464.16 868.91L1477.2 841.58Z" fill="#2C2858"/>
<path d="M1510.11 807.91L1508.33 1053.36L1503.1 1226.15C1503.1 1226.15 1552.52 1243.79 1589.38 1215.91L1579.38 831.15L1510.11 807.91Z" fill="#2C2858"/>
<path d="M1508.9 805.31L1507.81 1070.4L1546.77 864.71L1508.9 805.31Z" fill="#494C7F"/>
<path d="M1397.75 797.72L1410.59 1232.88C1410.59 1232.88 1321.14 1248.55 1284.59 1224.42L1304.38 1086.91L1322 805.63L1397.75 797.72Z" fill="#2C2858"/>
<path d="M1398.61 796.87L1405.58 1063.09L1359.26 853.52L1398.61 796.87Z" fill="#494C7F"/>
<path d="M1204.58 1212.28L1203.86 1243.17C1203.86 1243.17 1225.91 1242.51 1226.68 1257.57L1205.98 1258.21C1205.98 1258.21 1193.38 1274.49 1211.44 1306.21C1218.64 1337.32 1195.84 1324.21 1194.28 1334.49C1191.97 1349.74 1161.87 1323.6 1157.08 1292.49C1150.9 1252.28 1159.08 1247.49 1159.08 1247.49L1168.19 1216.96L1204.58 1212.28Z" fill="#F37A50"/>
<path d="M1486.38 774.416C1530 764.93 1555.57 712.223 1543.49 656.691C1531.41 601.159 1486.26 563.831 1442.65 573.317C1399.03 582.803 1373.47 635.511 1385.54 691.043C1397.62 746.575 1442.77 783.902 1486.38 774.416Z" fill="#F37A50"/>
<path d="M1517.13 677.82C1518.72 678.294 1520.41 678.287 1521.99 677.801C1523.57 677.314 1524.97 676.369 1526.02 675.086C1527.06 673.802 1527.71 672.237 1527.86 670.589C1528.02 668.942 1527.68 667.284 1526.9 665.827C1526.11 664.371 1524.91 663.179 1523.45 662.404C1521.98 661.63 1520.32 661.306 1518.68 661.474C1517.03 661.642 1515.47 662.295 1514.19 663.35C1512.92 664.405 1511.98 665.814 1511.51 667.4C1511.19 668.453 1511.09 669.558 1511.2 670.652C1511.31 671.745 1511.64 672.806 1512.16 673.774C1512.68 674.742 1513.39 675.597 1514.24 676.291C1515.1 676.985 1516.08 677.505 1517.13 677.82V677.82Z" fill="black"/>
<path d="M1448.8 675.46C1449.59 676.922 1450.79 678.118 1452.26 678.896C1453.73 679.674 1455.39 680 1457.05 679.831C1458.7 679.663 1460.26 679.008 1461.55 677.95C1462.83 676.891 1463.76 675.477 1464.24 673.886C1464.72 672.294 1464.71 670.597 1464.22 669.009C1463.74 667.421 1462.79 666.013 1461.5 664.963C1460.21 663.914 1458.64 663.27 1456.99 663.112C1455.34 662.955 1453.67 663.292 1452.21 664.08C1451.24 664.603 1450.38 665.313 1449.68 666.168C1448.99 667.023 1448.46 668.007 1448.15 669.064C1447.83 670.12 1447.73 671.229 1447.84 672.327C1447.95 673.424 1448.28 674.489 1448.8 675.46V675.46Z" fill="black"/>
<path d="M1502.66 671.43C1508.66 685.07 1516.33 701.78 1516.33 701.78C1516.33 701.78 1509.84 714.3 1492.41 711.95C1500.22 709.95 1508.22 706.09 1506.65 695.83C1505.08 685.57 1502.66 671.43 1502.66 671.43Z" fill="#DE623C"/>
<path d="M1439.68 662.74C1440.48 663.093 1441.37 663.167 1442.21 662.949C1443.06 662.731 1443.8 662.235 1444.33 661.54C1444.59 661.21 1451.04 653.03 1458.97 656.48C1459.91 656.891 1460.98 656.912 1461.93 656.537C1462.89 656.161 1463.66 655.422 1464.07 654.48C1464.48 653.539 1464.5 652.473 1464.13 651.516C1463.75 650.56 1463.01 649.791 1462.07 649.38C1451.24 644.66 1441.7 652.21 1438.16 656.85C1437.81 657.317 1437.56 657.857 1437.45 658.43C1437.33 659.004 1437.35 659.596 1437.5 660.163C1437.64 660.729 1437.91 661.255 1438.29 661.702C1438.67 662.148 1439.15 662.503 1439.68 662.74V662.74Z" fill="#2C2858"/>
<path d="M1534.28 662.74C1533.48 663.092 1532.59 663.165 1531.75 662.948C1530.91 662.73 1530.17 662.234 1529.64 661.54C1529.37 661.21 1522.92 653.03 1514.99 656.48C1514.52 656.684 1514.02 656.794 1513.51 656.803C1513 656.813 1512.5 656.722 1512.03 656.537C1511.55 656.351 1511.12 656.074 1510.75 655.721C1510.39 655.368 1510.09 654.946 1509.89 654.48C1509.69 654.014 1509.58 653.512 1509.57 653.004C1509.56 652.495 1509.65 651.99 1509.83 651.516C1510.02 651.042 1510.3 650.61 1510.65 650.244C1511 649.877 1511.42 649.584 1511.89 649.38C1522.72 644.66 1532.27 652.21 1535.8 656.85C1536.11 657.255 1536.34 657.716 1536.47 658.209C1536.6 658.701 1536.63 659.215 1536.56 659.719C1536.49 660.224 1536.32 660.71 1536.07 661.15C1535.81 661.589 1535.47 661.974 1535.06 662.28C1534.82 662.466 1534.56 662.62 1534.28 662.74Z" fill="#2C2858"/>
<path d="M1394.14 693.23C1396.46 672.73 1413.82 679.1 1418.78 652.23C1423.74 625.36 1428.64 605.23 1453.78 612.55C1478.92 619.87 1485.78 614.55 1496.78 609.65C1529.99 594.92 1542.28 651.49 1542.28 651.49C1542.28 651.49 1566.28 606.04 1541.47 581.2C1513.94 553.65 1505.82 572.56 1480.19 552.54C1454.56 532.52 1413.64 539.46 1403.69 555.36C1393.2 572.13 1390.26 584.65 1364.85 594.36C1339.44 604.07 1325.1 623.36 1344.59 651.6C1364.08 679.84 1325.08 694.25 1359.99 722.17C1373.53 733 1398.48 738.01 1403.09 733.17C1409.28 726.85 1392.64 706.44 1394.14 693.23Z" fill="#2C2858"/>
<path d="M1546.47 687C1546.47 687 1542.25 714.59 1536.07 723C1533.97 710.08 1521.77 720.9 1512.45 720.29C1489.95 718.81 1451.85 703.61 1441.37 735.72C1412.88 738.85 1397.96 677.62 1397.96 677.62C1383.64 741.39 1424.53 786 1494.14 788.8C1540 790.69 1557.1 732.48 1546.47 687Z" fill="#2C2858"/>
<path d="M1520.37 738.39C1520.67 738.01 1520.86 737.549 1520.9 737.064C1520.94 736.579 1520.84 736.092 1520.61 735.665C1520.38 735.238 1520.02 734.889 1519.59 734.662C1519.16 734.435 1518.67 734.341 1518.19 734.39C1502.69 736.088 1487.02 735.708 1471.62 733.26C1471.14 733.192 1470.65 733.266 1470.21 733.474C1469.78 733.681 1469.41 734.011 1469.16 734.425C1468.9 734.839 1468.78 735.318 1468.79 735.802C1468.81 736.286 1468.97 736.755 1469.25 737.15C1473.12 742.63 1481.17 751 1494.48 751.33C1507.79 751.66 1516.24 743.68 1520.37 738.39Z" fill="white"/>
<path d="M1402.86 679.3C1412.27 689.42 1413.19 703.86 1404.91 711.57C1396.63 719.28 1382.29 717.32 1372.91 707.2C1363.53 697.08 1362.57 682.64 1370.85 674.94C1379.13 667.24 1393.44 669.18 1402.86 679.3Z" fill="#F37A50"/>
<path d="M1392.11 706.88C1392.56 706.737 1392.97 706.494 1393.31 706.17C1398.31 701.34 1399.72 695.22 1397.02 689.8C1395.67 687.096 1393.51 684.879 1390.85 683.456C1388.18 682.033 1385.14 681.476 1382.14 681.86C1381.75 681.926 1381.37 682.068 1381.03 682.28C1380.69 682.491 1380.4 682.767 1380.17 683.092C1379.93 683.417 1379.77 683.785 1379.68 684.174C1379.59 684.563 1379.57 684.966 1379.64 685.36C1379.71 685.754 1379.85 686.131 1380.06 686.47C1380.27 686.809 1380.55 687.103 1380.87 687.335C1381.2 687.567 1381.56 687.733 1381.95 687.823C1382.34 687.913 1382.75 687.926 1383.14 687.86C1384.86 687.696 1386.6 688.055 1388.12 688.889C1389.63 689.724 1390.87 690.996 1391.65 692.54C1393.15 695.54 1392.27 698.86 1389.16 701.85C1388.64 702.312 1388.29 702.942 1388.19 703.63C1388.08 704.319 1388.21 705.023 1388.57 705.623C1388.92 706.223 1389.48 706.68 1390.13 706.917C1390.79 707.154 1391.5 707.155 1392.16 706.92L1392.11 706.88Z" fill="#DE623C"/>
<path d="M1457.29 837.31L1418.82 871.53L1389.06 810.62L1399.21 795.29L1457.29 837.31Z" fill="white"/>
<path d="M1457.29 837.31L1486.86 868.72L1514.7 814.41L1505.72 797.83L1457.29 837.31Z" fill="white"/>
<path d="M1219.34 1799.24C1216.25 1768.46 1232.14 1534.15 1232.14 1534.15C1277.06 1328.15 1259.42 1180.71 1259.42 1180.71L1182.2 1186.13L1151.77 1302.53L1166.21 1496.93C1166.21 1496.93 1160.79 1511.93 1157.93 1523.86C1142.43 1588.75 1157.87 1666.3 1167.41 1717.99C1171.84 1741.99 1178.72 1792.28 1178.9 1803.72L1159.5 1828.8C1159.5 1828.8 1229.7 1906.5 1240.5 1906.98C1261.5 1907.98 1255.3 1887.14 1255.3 1887.14C1226.46 1857.51 1220.23 1808.06 1219.34 1799.24Z" fill="#F37A50"/>
<path d="M1158.3 1856.33L1162.16 1906.25L1171.16 1906.65L1175.7 1860.29C1199.59 1866.39 1216.7 1909.73 1216.7 1909.73C1233.15 1915.63 1274.96 1919.73 1289.84 1912.01C1293.44 1897.42 1255.28 1887.2 1255.28 1887.2C1251.83 1891.28 1231.46 1894.41 1224.28 1890.04C1197.65 1867.36 1184.66 1834.38 1178.98 1803.72C1178.9 1803.72 1136.81 1806.65 1158.3 1856.33Z" fill="#E62552"/>
<path d="M1193.23 1195.69L1084.46 1180.69C1042.85 1274.83 1029.28 1438.69 1017.99 1497.13C972.65 1573.13 958.25 1803.7 958.25 1803.7L938.85 1828.78C938.85 1828.78 1009.05 1906.48 1019.85 1906.96C1040.85 1907.96 1034.66 1887.12 1034.66 1887.12C1005.8 1857.49 1000.18 1818.12 998.31 1809.46C995.5 1796.46 1086.31 1540.68 1086.31 1540.68L1096.01 1516.41C1207.01 1333.13 1225.19 1194.58 1225.19 1194.58L1193.23 1195.69Z" fill="#F37A50"/>
<path d="M937.65 1856.33L941.51 1906.25L950.51 1906.65L955.05 1860.29C978.93 1866.39 996.05 1909.73 996.05 1909.73C1012.5 1915.63 1054.32 1919.73 1069.2 1912.01C1072.79 1897.42 1034.64 1887.2 1034.64 1887.2C1031.19 1891.28 1010.82 1894.41 1003.64 1890.04C977 1867.36 964.01 1834.38 958.34 1803.72C958.25 1803.72 916.16 1806.65 937.65 1856.33Z" fill="#E62552"/>
<path d="M1233.11 928.62C1268.53 916.29 1343.78 878.29 1308.11 827.05C1272.44 775.81 1257.31 797.28 1271.02 735.66C1284.73 674.04 1241.36 624.99 1199.36 636.82C1157.36 648.65 1146.31 682.42 1095.09 673.28C1043.87 664.14 1000.69 711.67 1019.55 753.49C1038.41 795.31 1046.44 815.49 1028.12 838.29C1009.8 861.09 928.12 885.05 961.49 940.61C994.86 996.17 1010.42 992.96 998.32 1021.12C986.22 1049.28 1013.06 1081.78 1060.32 1077.9C1107.58 1074.02 1150.45 1056.65 1168.32 1004.17C1186.19 951.69 1233.11 928.62 1233.11 928.62Z" fill="black"/>
<path d="M1223.72 912.49C1239.72 914.15 1258.72 922.3 1265.6 941.36C1272.48 960.42 1268.11 1010.24 1268.11 1010.24L1223.72 912.49Z" fill="#C4204A"/>
<path d="M1135 861.06L1135.52 930.84C1135.52 930.84 1169.38 951.44 1196.11 934.98C1192 914.42 1186 867.53 1186 867.53L1135 861.06Z" fill="#F37A50"/>
<path d="M1232.1 780.07C1232.1 831.91 1200.84 873.93 1162.28 873.93C1123.72 873.93 1092.45 831.93 1092.45 780.07C1092.45 728.21 1123.71 686.2 1162.28 686.2C1200.85 686.2 1232.1 728.23 1232.1 780.07Z" fill="#F37A50"/>
<path d="M1087.81 780.07C1126.35 775.14 1162.19 753.66 1182.43 725.9C1195.51 758.35 1232.1 780.07 1232.1 780.07C1232.1 780.07 1259.52 718.01 1209.65 684.54C1162.07 652.6 1048.56 674.42 1087.81 780.07Z" fill="black"/>
<path d="M1132.9 800.1C1131.43 800.102 1129.99 799.668 1128.77 798.852C1127.54 798.036 1126.59 796.876 1126.03 795.518C1125.46 794.16 1125.32 792.665 1125.6 791.223C1125.89 789.781 1126.6 788.456 1127.64 787.416C1128.68 786.376 1130 785.669 1131.44 785.382C1132.89 785.096 1134.38 785.244 1135.74 785.807C1137.1 786.371 1138.26 787.325 1139.07 788.548C1139.89 789.772 1140.32 791.21 1140.32 792.68C1140.32 794.648 1139.54 796.535 1138.15 797.927C1136.76 799.318 1134.87 800.1 1132.9 800.1V800.1Z" fill="black"/>
<path d="M1192.05 800.1C1190.58 800.102 1189.14 799.668 1187.92 798.852C1186.69 798.036 1185.74 796.876 1185.18 795.518C1184.61 794.16 1184.47 792.665 1184.75 791.223C1185.04 789.781 1185.75 788.456 1186.79 787.416C1187.83 786.376 1189.15 785.669 1190.59 785.382C1192.04 785.096 1193.53 785.244 1194.89 785.807C1196.25 786.371 1197.41 787.325 1198.22 788.548C1199.04 789.772 1199.47 791.21 1199.47 792.68C1199.47 793.654 1199.28 794.619 1198.91 795.52C1198.53 796.42 1197.99 797.238 1197.3 797.927C1196.61 798.616 1195.79 799.162 1194.89 799.535C1193.99 799.908 1193.02 800.1 1192.05 800.1Z" fill="black"/>
<path d="M1205.12 786C1204.5 786.002 1203.89 785.841 1203.35 785.534C1202.81 785.227 1202.36 784.784 1202.05 784.25C1200.22 781.16 1198.05 779.31 1195.45 778.75C1191.06 777.75 1186.7 780.75 1186.65 780.75C1185.87 781.29 1184.92 781.499 1183.99 781.332C1183.06 781.165 1182.23 780.636 1181.69 779.86C1181.15 779.084 1180.94 778.126 1181.11 777.196C1181.27 776.266 1181.8 775.44 1182.58 774.9C1182.86 774.71 1189.45 770.17 1196.91 771.78C1201.5 772.78 1205.29 775.78 1208.18 780.63C1208.5 781.171 1208.67 781.787 1208.68 782.415C1208.69 783.044 1208.53 783.664 1208.21 784.21C1207.9 784.757 1207.45 785.211 1206.91 785.527C1206.37 785.844 1205.75 786.01 1205.12 786.01V786Z" fill="black"/>
<path d="M1118.82 786.35C1118.01 786.352 1117.23 786.077 1116.6 785.57C1115.86 784.981 1115.39 784.123 1115.29 783.186C1115.18 782.248 1115.45 781.307 1116.04 780.57C1120.73 774.72 1125.92 771.57 1131.45 771.11C1135.9 770.82 1140.3 772.251 1143.73 775.11C1144.08 775.424 1144.36 775.804 1144.56 776.227C1144.76 776.651 1144.87 777.109 1144.9 777.577C1144.92 778.044 1144.85 778.512 1144.69 778.952C1144.53 779.393 1144.29 779.798 1143.98 780.145C1143.66 780.492 1143.28 780.773 1142.86 780.973C1142.43 781.173 1141.98 781.287 1141.51 781.31C1141.04 781.333 1140.57 781.263 1140.13 781.106C1139.69 780.948 1139.29 780.704 1138.94 780.39C1136.96 778.816 1134.47 778.029 1131.94 778.18C1128.47 778.49 1125 780.78 1121.63 784.99C1121.29 785.414 1120.87 785.756 1120.38 785.991C1119.89 786.227 1119.36 786.349 1118.82 786.35V786.35Z" fill="black"/>
<path d="M1169.64 802.42C1179.24 809.34 1182.23 812.18 1185.93 814.49C1183.38 823.06 1169.93 827.31 1166.11 826.32C1175.47 821.71 1176.79 815.46 1176.79 815.46L1169.64 802.42Z" fill="#DE623C"/>
<path d="M1102.88 787.31C1110.88 797.44 1111.28 810.47 1103.77 816.4C1096.26 822.33 1083.69 818.92 1075.68 808.79C1067.67 798.66 1067.28 785.63 1074.79 779.7C1082.3 773.77 1094.88 777.18 1102.88 787.31Z" fill="#F37A50"/>
<path d="M1095.86 809.2C1095.54 809.199 1095.23 809.138 1094.94 809.02C1094.36 808.773 1093.9 808.306 1093.66 807.722C1093.42 807.137 1093.43 806.482 1093.67 805.9C1095.37 801.9 1095.41 798.65 1093.79 796.3C1091.28 792.66 1085.38 791.54 1081.09 791.68C1080.48 791.667 1079.9 791.421 1079.47 790.993C1079.04 790.566 1078.78 789.989 1078.76 789.381C1078.74 788.773 1078.96 788.18 1079.36 787.724C1079.76 787.268 1080.32 786.984 1080.93 786.93C1086.69 786.74 1094.12 788.39 1097.7 793.6C1099.49 796.2 1101 800.77 1098.05 807.75C1097.87 808.181 1097.57 808.55 1097.18 808.808C1096.79 809.066 1096.33 809.203 1095.86 809.2V809.2Z" fill="#DE623C"/>
<path d="M1143.75 839C1143.53 838.64 1143.42 838.223 1143.43 837.801C1143.44 837.379 1143.58 836.97 1143.82 836.624C1144.06 836.278 1144.4 836.01 1144.79 835.853C1145.19 835.696 1145.62 835.657 1146.03 835.74C1159.33 838.742 1172.96 839.959 1186.58 839.36C1187 839.346 1187.42 839.458 1187.78 839.68C1188.14 839.903 1188.43 840.227 1188.61 840.612C1188.79 840.997 1188.85 841.426 1188.79 841.845C1188.72 842.265 1188.54 842.656 1188.25 842.97C1184.35 847.35 1176.53 853.82 1164.95 852.79C1153.37 851.76 1146.81 844 1143.75 839Z" fill="white"/>
<path d="M1073.44 908.88C1073.44 908.88 983 949 932.44 1054.09C961.96 1095.64 993.81 1070.92 993.81 1070.92L1078.07 1005.11C1078.07 1005.11 1099.5 966.32 1096.73 945.87C1092.63 915.47 1073.44 908.88 1073.44 908.88Z" fill="#C4204A"/>
<path d="M1089 1488.78C1059.89 1483.51 1032 1483.54 1015.6 1483.9C1025.96 1449.24 1020.06 1233.01 1085.74 1159.42L1253.94 1161.65C1312.46 1262.05 1281.46 1414.9 1317.62 1475.84C1303.5 1482.67 1272.81 1495.69 1220.96 1500.92C1163.63 1506.71 1138.18 1497.67 1089 1488.78Z" fill="#070635"/>
<path d="M1252.48 1117.73C1252.48 1083.37 1282.26 1031.89 1267.98 997.2C1257.59 969.3 1239.38 918.99 1218.11 911.2C1208.11 907.51 1203.11 904.69 1190.63 901.2C1190.63 901.2 1189.98 927.79 1175.28 928.96C1146.99 931.23 1135.28 894.84 1135.28 894.84C1120.02 893.38 1063.66 909.38 1063.69 915.12C1063.86 960.12 1083.69 1032.92 1095.61 1081.58C1097.83 1106.36 1096.08 1125.58 1093.61 1139.58C1089.08 1154.19 1081.24 1161.72 1081.21 1164.88C1081.21 1164.88 1188.4 1201.36 1255.13 1164.62C1255.1 1164.65 1252.48 1140.93 1252.48 1117.73Z" fill="#F5A3B7"/>
<path d="M1122.79 895.78C1122.79 895.78 1155.88 1019.17 1155.88 1071.35C1155.88 1130.64 1125.48 1230.59 1125.48 1230.59L1051.08 1227.69C1051.08 1227.69 1060.19 1186.04 1082.89 1149.02C1106.32 1110.79 1080.59 1029.26 1074.89 1007.57C1069.19 985.88 1059.99 915.92 1059.99 915.92C1059.99 915.92 1091 895.59 1122.79 895.78Z" fill="#E62552"/>
<path d="M1201.63 904.71C1209.03 920.42 1237.63 984.79 1235.85 1023.92C1234.07 1063.05 1230.43 1197.43 1241.15 1234C1267.87 1233.21 1280.07 1225.15 1280.07 1225.15C1283.88 1214.83 1243.84 1155.65 1254.63 1109.66C1265.42 1063.67 1274.82 1030.9 1271.86 1012.06C1268.53 990.94 1252.17 937.39 1223.72 912.49C1216.53 909.437 1209.15 906.839 1201.63 904.71V904.71Z" fill="#E62552"/>
<path d="M1063.56 1150.06L1068.35 1152.06C1068.35 1152.06 1078.06 1138.95 1087.99 1139.44L1081.92 1152.22C1081.92 1152.22 1093.33 1171 1123.4 1169.01C1149.09 1174.85 1131.12 1187.01 1138.23 1191.92C1148.73 1199.12 1119.3 1216.79 1094.51 1209.17C1062.43 1199.3 1041.58 1169.01 1041.58 1169.01L1063.56 1150.06Z" fill="#F37A50"/>
<path d="M1063.56 1150.06L995.46 1064.06C995.46 1064.06 981.11 1036.61 932.46 1054.06C930.1 1080.22 958.09 1115.87 1044.89 1173.28L1063.56 1150.06Z" fill="#C4204A"/>
<path d="M2149 659.53C2088.46 642.45 1967.54 691.41 2002.73 911.61C2037.92 1131.81 2196.25 1101.25 2196.25 1101.25C2196.25 1101.25 2268.9 1078.41 2275.43 938.52C2281.96 798.63 2250.8 688.26 2149 659.53Z" fill="#201D40"/>
<path d="M2074.94 964.75C2062.05 1001.87 2013.69 1074.48 1996.41 1087.75C1984.91 1071.37 1942.41 1079.54 1942.41 1079.54C1942.41 1079.54 1984.86 976.66 2023.2 926.81C2041.13 893.29 2096.11 904.17 2074.94 964.75Z" fill="#7890DB"/>
<path d="M1942.46 1079.59C1950.7 1124.83 2005.39 1183.65 2005.39 1183.65C2005.39 1183.65 2011.54 1180.11 2012.88 1153.44C2006.09 1135.18 1996.41 1087.8 1996.41 1087.8C1996.41 1087.8 1974.88 1064.67 1942.46 1079.59Z" fill="#F37A50"/>
<path d="M2096.41 859.53L2141.54 852.77L2137.94 894.66C2137.94 894.66 2115.09 935.84 2093.41 928.75C2071.73 921.66 2082.3 903.46 2082.3 903.46L2096.41 859.53Z" fill="#F37A50"/>
<path d="M2177.64 791.57C2170.3 841.06 2132.85 876.51 2093.98 870.75C2055.11 864.99 2029.55 820.2 2036.88 770.75C2044.21 721.3 2081.67 685.81 2120.54 691.57C2159.41 697.33 2185 742.09 2177.64 791.57Z" fill="#F37A50"/>
<path d="M2135.39 778.22C2134.83 778.054 2134.34 777.701 2134.01 777.22C2129.01 769.98 2118.84 770.22 2118.74 770.22C2118.06 770.242 2117.4 769.993 2116.9 769.527C2116.4 769.061 2116.11 768.417 2116.08 767.735C2116.06 767.053 2116.31 766.391 2116.78 765.893C2117.24 765.395 2117.89 765.103 2118.57 765.08C2119.1 765.08 2131.57 764.75 2138.24 774.31C2138.55 774.748 2138.71 775.27 2138.7 775.804C2138.7 776.337 2138.53 776.856 2138.21 777.288C2137.9 777.72 2137.46 778.044 2136.95 778.214C2136.45 778.385 2135.9 778.394 2135.39 778.24V778.22Z" fill="#201D40"/>
<path d="M2048.71 776.79C2048.44 776.684 2048.2 776.535 2047.98 776.35C2047.46 775.908 2047.14 775.279 2047.09 774.6C2047.03 773.921 2047.25 773.249 2047.69 772.73C2049.79 770.252 2052.53 768.386 2055.6 767.331C2058.68 766.275 2061.98 766.067 2065.16 766.73C2065.79 766.925 2066.32 767.353 2066.64 767.927C2066.97 768.5 2067.06 769.176 2066.9 769.815C2066.74 770.454 2066.34 771.009 2065.79 771.365C2065.24 771.721 2064.57 771.851 2063.92 771.73C2061.67 771.285 2059.35 771.448 2057.18 772.203C2055.02 772.957 2053.09 774.274 2051.61 776.02C2051.27 776.435 2050.8 776.732 2050.28 776.87C2049.76 777.008 2049.21 776.98 2048.71 776.79V776.79Z" fill="#201D40"/>
<path d="M2084.6 797.73C2081.36 801.73 2078.6 805.73 2075.36 808.2C2074.84 808.603 2074.5 809.189 2074.4 809.838C2074.3 810.487 2074.45 811.149 2074.82 811.69C2077.99 816.32 2086.36 819.62 2091.45 821.27C2091.61 821.318 2091.77 821.31 2091.92 821.247C2092.07 821.184 2092.19 821.07 2092.27 820.926C2092.34 820.781 2092.36 820.615 2092.33 820.457C2092.29 820.298 2092.2 820.158 2092.07 820.06C2086.73 816.15 2084.32 813.14 2083.27 811.46C2083.02 811.047 2082.86 810.581 2082.82 810.098C2082.78 809.616 2082.85 809.13 2083.03 808.68C2083.87 806.58 2085.54 802.31 2086.61 798.79C2086.68 798.534 2086.67 798.259 2086.56 798.013C2086.46 797.768 2086.27 797.565 2086.04 797.441C2085.8 797.316 2085.53 797.277 2085.27 797.33C2085.01 797.382 2084.77 797.524 2084.6 797.73V797.73Z" fill="#DE623C"/>
<path d="M2117.17 835.11C2117.39 834.774 2117.5 834.382 2117.5 833.981C2117.5 833.58 2117.38 833.189 2117.16 832.855C2116.94 832.521 2116.63 832.258 2116.26 832.099C2115.89 831.94 2115.48 831.892 2115.09 831.96C2108.74 833.135 2102.33 833.95 2095.89 834.4C2089.44 834.729 2082.98 834.686 2076.54 834.27C2076.14 834.246 2075.74 834.34 2075.39 834.542C2075.04 834.744 2074.76 835.044 2074.58 835.404C2074.4 835.764 2074.33 836.17 2074.38 836.569C2074.43 836.968 2074.6 837.344 2074.86 837.65C2078.43 841.91 2085.67 848.27 2096.68 847.65C2107.69 847.03 2114.13 839.77 2117.17 835.11Z" fill="white"/>
<path d="M2193.46 787C2147.46 784.92 2087.03 742.49 2079.72 719.2C2085.99 689.89 2109.1 673.32 2136.72 684.2C2164.34 695.08 2209.54 749.44 2193.46 787Z" fill="#201D40"/>
<path d="M2090.22 731C2090.22 731 2062.86 758.8 2035.16 765.15C2044.86 732.72 2051.78 708.15 2068.4 700.15C2085.02 692.15 2103.4 690.8 2103.4 690.8L2090.22 731Z" fill="#201D40"/>
<path d="M2166.89 783.89C2158.28 791.89 2156.61 804.11 2163.16 811.16C2169.71 818.21 2182.02 817.43 2190.63 809.42C2199.24 801.41 2200.92 789.2 2194.36 782.15C2187.8 775.1 2175.51 775.88 2166.89 783.89Z" fill="#F37A50"/>
<path d="M2174.32 808C2173.94 807.86 2173.59 807.631 2173.32 807.33C2169.32 802.92 2168.55 797.64 2171.17 793.2C2172.48 790.988 2174.45 789.238 2176.8 788.193C2179.15 787.149 2181.77 786.861 2184.29 787.37C2184.63 787.438 2184.95 787.574 2185.23 787.768C2185.52 787.963 2185.76 788.213 2185.94 788.503C2186.13 788.793 2186.26 789.117 2186.31 789.457C2186.37 789.796 2186.36 790.144 2186.28 790.479C2186.2 790.815 2186.06 791.13 2185.85 791.408C2185.65 791.686 2185.39 791.92 2185.1 792.097C2184.8 792.273 2184.47 792.388 2184.13 792.435C2183.79 792.482 2183.44 792.46 2183.11 792.37C2181.66 792.122 2180.16 792.318 2178.82 792.934C2177.48 793.549 2176.36 794.555 2175.6 795.82C2174.14 798.28 2174.69 801.15 2177.14 803.88C2177.53 804.311 2177.76 804.859 2177.79 805.436C2177.83 806.014 2177.67 806.586 2177.34 807.062C2177.01 807.537 2176.53 807.888 2175.98 808.056C2175.42 808.224 2174.83 808.201 2174.29 807.99L2174.32 808Z" fill="#DE623C"/>
<path d="M2130.45 785.79C2130.45 787.353 2129.99 788.88 2129.12 790.179C2128.25 791.478 2127.02 792.491 2125.57 793.089C2124.13 793.687 2122.54 793.843 2121.01 793.538C2119.48 793.234 2118.07 792.481 2116.96 791.376C2115.86 790.271 2115.11 788.864 2114.8 787.331C2114.5 785.799 2114.65 784.21 2115.25 782.767C2115.85 781.323 2116.86 780.09 2118.16 779.221C2119.46 778.353 2120.99 777.89 2122.55 777.89C2124.65 777.89 2126.65 778.722 2128.14 780.204C2129.62 781.686 2130.45 783.695 2130.45 785.79V785.79Z" fill="black"/>
<path d="M2072.89 785.79C2072.89 787.353 2072.43 788.88 2071.56 790.179C2070.69 791.478 2069.46 792.491 2068.01 793.089C2066.57 793.687 2064.98 793.843 2063.45 793.538C2061.92 793.234 2060.51 792.481 2059.4 791.376C2058.3 790.271 2057.55 788.864 2057.24 787.331C2056.94 785.799 2057.09 784.21 2057.69 782.767C2058.29 781.323 2059.3 780.09 2060.6 779.221C2061.9 778.353 2063.43 777.89 2064.99 777.89C2067.09 777.89 2069.09 778.722 2070.58 780.204C2072.06 781.686 2072.89 783.695 2072.89 785.79V785.79Z" fill="black"/>
<path d="M2054.16 1808C2057.16 1777.87 2041.64 1548.51 2041.64 1548.51C1997.64 1346.87 2014.93 1202.51 2014.93 1202.51L2090.52 1207.82L2120.31 1321.76L2106.18 1512C2106.18 1512 2111.48 1526.65 2114.28 1538.36C2129.45 1601.88 2114.34 1677.8 2104.99 1728.36C2100.66 1751.81 2093.93 1801.09 2093.75 1812.29L2112.75 1836.84C2112.75 1836.84 2044.03 1912.84 2033.46 1913.37C2012.91 1914.3 2018.96 1893.95 2018.96 1893.95C2047.2 1865 2053.3 1816.61 2054.16 1808Z" fill="#F37A50"/>
<path d="M2113.92 1863.85L2110.13 1912.72L2101.35 1913.12L2096.91 1867.74C2073.53 1873.74 2056.78 1916.13 2056.78 1916.13C2040.68 1921.9 1999.78 1925.87 1985.18 1918.36C1981.66 1904.08 2019.01 1894.07 2019.01 1894.07C2022.39 1898.07 2042.33 1901.13 2049.41 1896.85C2075.48 1874.65 2088.19 1842.37 2093.75 1812.36C2093.75 1812.36 2135 1815.23 2113.92 1863.85Z" fill="#C4204A"/>
<path d="M2079.72 1217.17L2186.2 1202.5C2226.93 1294.65 2240.2 1455.11 2251.27 1512.26C2295.65 1586.68 2309.74 1812.36 2309.74 1812.36L2328.74 1836.91C2328.74 1836.91 2260.02 1912.91 2249.45 1913.44C2228.9 1914.37 2234.95 1894.02 2234.95 1894.02C2263.2 1865.02 2268.71 1826.47 2270.54 1818.02C2273.28 1805.28 2184.35 1554.92 2184.35 1554.92L2174.86 1531.17C2066.23 1351.76 2048.41 1216.17 2048.41 1216.17L2079.72 1217.17Z" fill="#F37A50"/>
<path d="M2329.91 1863.85L2326.13 1912.72L2317.34 1913.12L2312.9 1867.74C2289.52 1873.74 2272.77 1916.13 2272.77 1916.13C2256.67 1921.9 2215.77 1925.87 2201.17 1918.36C2197.66 1904.08 2235.01 1894.07 2235.01 1894.07C2238.38 1898.07 2258.32 1901.13 2265.4 1896.85C2291.47 1874.65 2304.19 1842.37 2309.74 1812.36C2309.74 1812.36 2350.94 1815.23 2329.91 1863.85Z" fill="#C4204A"/>
<path d="M2277.68 1501.79C2267.05 1466.22 2271.68 1211.56 2177.8 1142.31L2016.26 1159.31C1978.93 1219.74 1992.63 1376.97 2005.2 1506.36C2081.15 1533.49 2141.54 1544.37 2277.68 1501.79Z" fill="#070635"/>
<path d="M2014.29 1119.47C2014.29 1084.1 1983.63 1031.1 1998.29 995.39C2008.99 966.66 2027.74 914.86 2049.64 906.82C2059.97 903.02 2069.73 903.95 2082.64 900.39C2082.64 900.39 2078.64 923.93 2093.77 925.14C2122.91 927.48 2138.22 890.14 2138.22 890.14C2153.92 888.64 2208.7 904.98 2208.67 910.9C2208.5 957.24 2188.12 1032.18 2175.81 1082.28C2173.52 1107.79 2175.33 1127.58 2177.89 1142.01C2182.55 1157.01 2188.25 1165.68 2188.28 1168.93C2188.28 1168.93 2080.28 1205.62 2011.59 1167.79C2011.59 1167.78 2014.29 1143.37 2014.29 1119.47Z" fill="#95A6DB"/>
<path d="M2206.41 1153.1L2197.21 1156.78C2197.21 1156.78 2187.61 1141.52 2177.89 1142L2182.73 1156.58C2182.73 1156.58 2177.23 1173.58 2147.73 1171.66C2122.56 1177.38 2140.17 1189.34 2133.2 1194.12C2122.91 1201.17 2151.76 1218.49 2176.05 1211.02C2207.5 1201.35 2227.92 1171.66 2227.92 1171.66L2206.41 1153.1Z" fill="#F37A50"/>
<path d="M2206.41 908.12C2206.41 908.12 2283.35 953.19 2320.61 1061.22C2287.14 1098.31 2258.95 1070.63 2258.95 1070.63L2184.41 997C2184.41 997 2162.5 970.08 2172.98 937.2C2182.11 908.54 2206.41 908.12 2206.41 908.12Z" fill="#F37A50"/>
<path d="M2206.41 1153.1L2260.2 1074.32C2260.2 1074.32 2272.91 1044.1 2320.61 1061.22C2322.91 1086.86 2304.34 1123.38 2219.27 1179.66C2215.68 1170.48 2211.38 1161.6 2206.41 1153.1Z" fill="#F37A50"/>
<path d="M2093.77 925.14C2091.17 937.26 2098.22 951.79 2118.52 944.98C2142.84 936.82 2154.2 891.17 2154.2 891.17L2139 882.91C2139 882.91 2127.37 914.44 2093.77 925.14Z" fill="white"/>
<path d="M2093.77 925.14C2090.77 931.38 2073.67 947.39 2065.56 937.86C2057.45 928.33 2066.92 903.29 2066.92 903.29L2085.36 893.92C2085.36 893.92 2078.13 916.47 2093.77 925.14Z" fill="white"/>
<path d="M2206.41 908.12C2206.41 908.12 2283.35 953.19 2320.61 1061.22C2287.14 1098.31 2256.05 1067.76 2256.05 1067.76L2184.41 997C2184.41 997 2162.5 970.08 2172.98 937.2C2182.11 908.54 2206.41 908.12 2206.41 908.12Z" fill="#7890DB"/>
<path d="M1996.62 1189.79C1997.16 1189.43 1997.76 1189.15 1998.39 1188.98L1998.19 1188.71C1994.38 1183.16 1994.51 1176.45 1998.49 1173.71C1999.14 1173.27 1999.86 1172.95 2000.62 1172.77C1999.5 1168.64 2000.37 1164.66 2003.21 1162.71C2004.34 1161.94 2005.68 1161.55 2007.05 1161.57C2005.67 1157.51 2006.64 1153.21 2009.82 1151.02C2013.82 1148.29 2019.66 1149.91 2022.92 1154.64C2026.18 1159.37 2025.58 1165.42 2021.61 1168.16C2020.62 1168.83 2019.48 1169.27 2018.29 1169.42C2021.06 1174.59 2020.62 1180.31 2017.02 1182.78C2016.37 1183.22 2015.65 1183.54 2014.89 1183.72C2016.01 1187.85 2015.14 1191.83 2012.3 1193.78C2011.25 1194.49 2010.02 1194.88 2008.76 1194.92C2010.15 1198.47 2009.37 1202.33 2006.57 1204.25C2003.21 1206.56 1998.26 1205.19 1995.51 1201.19C1992.76 1197.19 1993.26 1192.1 1996.62 1189.79Z" fill="#F37A50"/>
<path d="M1661.41 1860.8L1630.56 1875.13L1614.91 1842.49L1570.1 1549.49C1577.84 1451.49 1652.91 1242.92 1652.91 1242.92L1739.59 1368.92L1641.2 1567.18C1679.87 1606.74 1656.45 1728.48 1661.41 1860.8Z" fill="#F37A50"/>
<path d="M1703.75 1249.79C1704.53 1243.73 1801.25 1235.07 1801.25 1235.07C1819.57 1311.52 1821.01 1435.07 1806.56 1519.52C1827.72 1592.52 1817.56 1764.25 1805.79 1851.82L1754.79 1851.7C1751.44 1804.39 1753.94 1649.51 1712.21 1519.52C1704 1470.69 1700.4 1282.33 1703.75 1249.79Z" fill="#F37A50"/>
<path d="M1634.75 1862.25C1628.43 1844.47 1614.91 1842.49 1614.91 1842.49C1588.63 1880.03 1524.09 1856.99 1526.22 1907.78C1624.37 1907.12 1665.16 1907.78 1665.16 1907.78C1665.03 1896.11 1663.09 1868.43 1660.83 1857.59L1655.71 1858.59L1634.75 1862.25Z" fill="#E62552"/>
<path d="M1658.57 1921.33H1532.75C1531 1921.33 1529.33 1920.64 1528.09 1919.4C1526.85 1918.16 1526.16 1916.49 1526.16 1914.74V1906.37H1665.16V1914.71C1665.17 1915.58 1665 1916.44 1664.67 1917.24C1664.34 1918.05 1663.86 1918.78 1663.24 1919.39C1662.63 1920.01 1661.9 1920.5 1661.1 1920.83C1660.3 1921.16 1659.44 1921.33 1658.57 1921.33V1921.33Z" fill="white"/>
<path d="M1742.66 1908.27C1742.66 1908.27 1750.54 1876.79 1751.23 1872.74C1752.02 1868.14 1754.34 1857.27 1754.81 1851.74C1754.93 1850.36 1768.45 1841.5 1778.81 1841.52C1792.81 1841.52 1805.56 1850.22 1805.81 1851.86C1807.46 1862.37 1807.51 1874.72 1810.18 1884.95C1812.18 1892.57 1817.58 1910.3 1817.58 1910.3L1742.66 1908.27Z" fill="#E62552"/>
<path d="M1742.66 1905.82C1744.5 1912.07 1767.15 1904.82 1783.66 1904.82C1797.54 1904.82 1815.5 1910.58 1817.54 1908.34C1821.01 1914.9 1818.15 1928.51 1818.15 1928.51C1818.15 1928.51 1803.69 1929.31 1786.34 1928.51C1768.99 1927.71 1748.95 1928.9 1741.39 1926.51C1736.65 1918 1742.66 1905.82 1742.66 1905.82Z" fill="white"/>
<path d="M1583.17 737.11C1580 693.88 1592.5 655.68 1626.97 636.23C1661.9 616.52 1705.67 635.86 1705.67 635.86C1705.67 635.86 1742.67 622.68 1776.29 659.66C1809.91 696.64 1784.47 729.19 1798.2 756.16C1806.34 772.16 1847.7 775.42 1837.01 827.45C1833.93 842.45 1815.88 852.55 1800.6 853.56C1773.74 855.32 1748.74 844.94 1737.85 855.32C1701.98 889.53 1622.48 877.16 1611.36 845.87C1607.91 836.16 1536.36 854.94 1543.53 788.87C1547.15 755.36 1586 775.73 1583.17 737.11Z" fill="black"/>
<path d="M1663.05 830.48L1709.15 823.58L1705.48 866.37C1705.48 866.37 1691.83 906.37 1664.63 907.12C1637.43 907.87 1647.53 875.82 1647.53 875.82L1663.05 830.48Z" fill="#F37A50"/>
<path d="M1579.16 1096C1579.16 1059.86 1547.83 1005.72 1562.85 969.24C1573.79 939.89 1592.05 890.63 1614.42 882.41C1624.98 878.53 1635.59 875.89 1648.74 872.26C1648.74 872.26 1644.89 896.26 1660.35 897.48C1690.11 899.86 1705.88 861.58 1705.88 861.58C1721.88 860.04 1794.88 884.04 1798.3 895.77C1798.13 943.11 1756.74 1006.77 1744.16 1058C1739.16 1113.27 1751.02 1142.78 1751.09 1149.07C1751.09 1149.07 1646.59 1184 1576.4 1145.35C1576.4 1145.38 1579.16 1120.44 1579.16 1096Z" fill="#3F964F"/>
<path d="M1748 768.475C1757.44 718.245 1733.1 671.518 1693.65 664.106C1654.2 656.695 1614.57 691.406 1605.14 741.636C1595.7 791.866 1620.03 838.593 1659.48 846.004C1698.93 853.416 1738.56 818.704 1748 768.475Z" fill="#F37A50"/>
<path d="M1706 748.34C1705.41 748.217 1704.89 747.891 1704.52 747.42C1698.89 740.42 1688.52 741.31 1688.52 741.32C1687.84 741.365 1687.17 741.144 1686.65 740.704C1686.13 740.264 1685.8 739.639 1685.73 738.961C1685.66 738.283 1685.86 737.605 1686.28 737.069C1686.7 736.533 1687.31 736.182 1687.99 736.09C1688.53 736.03 1701.23 734.85 1708.67 744.09C1709.01 744.514 1709.21 745.033 1709.25 745.577C1709.28 746.12 1709.14 746.66 1708.85 747.122C1708.57 747.584 1708.14 747.944 1707.64 748.154C1707.14 748.363 1706.58 748.411 1706.05 748.29L1706 748.34Z" fill="black"/>
<path d="M1621.1 747.61C1620.7 747.489 1620.33 747.275 1620.03 746.984C1619.73 746.694 1619.5 746.336 1619.37 745.94C1619.23 745.544 1619.2 745.121 1619.26 744.707C1619.32 744.293 1619.48 743.9 1619.72 743.56C1621.65 740.861 1624.28 738.734 1627.32 737.404C1630.36 736.073 1633.71 735.588 1637 736C1637.67 736.134 1638.26 736.52 1638.64 737.078C1639.03 737.636 1639.19 738.323 1639.08 738.994C1638.97 739.665 1638.61 740.269 1638.07 740.678C1637.52 741.087 1636.84 741.271 1636.17 741.19C1633.84 740.929 1631.49 741.293 1629.35 742.244C1627.21 743.194 1625.36 744.698 1623.99 746.6C1623.67 747.049 1623.23 747.388 1622.71 747.569C1622.19 747.75 1621.63 747.764 1621.1 747.61V747.61Z" fill="black"/>
<path d="M1653.19 768.64C1650.1 772.22 1647.46 775.92 1644.35 777.98C1644.1 778.175 1643.88 778.418 1643.73 778.696C1643.57 778.973 1643.46 779.28 1643.43 779.597C1643.39 779.915 1643.41 780.236 1643.5 780.544C1643.58 780.852 1643.73 781.14 1643.93 781.39C1647.27 786.39 1655.75 790.58 1660.93 792.8C1661.68 793.13 1662.15 792.2 1661.51 791.67C1656.03 787.17 1653.51 783.91 1652.39 782.12C1652.13 781.711 1651.96 781.247 1651.9 780.764C1651.84 780.28 1651.9 779.789 1652.06 779.33C1652.82 777.33 1654.32 773.33 1655.27 769.92C1655.56 768.76 1654 767.75 1653.19 768.64Z" fill="#DE623C"/>
<path d="M1686.84 807.12C1687.06 806.773 1687.17 806.37 1687.16 805.96C1687.15 805.55 1687.03 805.152 1686.8 804.814C1686.56 804.475 1686.24 804.213 1685.86 804.057C1685.48 803.902 1685.06 803.861 1684.66 803.94C1678.2 805.262 1671.67 806.223 1665.1 806.82C1658.52 807.275 1651.92 807.359 1645.33 807.07C1644.92 807.057 1644.52 807.163 1644.17 807.376C1643.82 807.589 1643.54 807.9 1643.36 808.269C1643.19 808.639 1643.13 809.051 1643.18 809.457C1643.24 809.862 1643.41 810.242 1643.68 810.55C1647.42 814.83 1654.93 821.18 1666.17 820.28C1677.41 819.38 1683.83 811.93 1686.84 807.12Z" fill="white"/>
<path d="M1685.55 756.53C1685.55 758.136 1686.03 759.706 1686.92 761.041C1687.81 762.377 1689.08 763.417 1690.56 764.032C1692.05 764.646 1693.68 764.807 1695.25 764.494C1696.83 764.181 1698.28 763.407 1699.41 762.272C1700.55 761.136 1701.32 759.689 1701.63 758.114C1701.95 756.539 1701.79 754.906 1701.17 753.423C1700.56 751.939 1699.52 750.671 1698.18 749.778C1696.85 748.886 1695.28 748.41 1693.67 748.41C1691.52 748.413 1689.45 749.269 1687.93 750.791C1686.41 752.313 1685.55 754.377 1685.55 756.53Z" fill="black"/>
<path d="M1625.56 756.53C1625.56 758.139 1626.03 759.712 1626.93 761.05C1627.82 762.389 1629.09 763.433 1630.57 764.049C1632.06 764.666 1633.7 764.828 1635.27 764.514C1636.85 764.201 1638.3 763.426 1639.44 762.289C1640.58 761.151 1641.35 759.702 1641.66 758.124C1641.98 756.546 1641.82 754.91 1641.2 753.424C1640.58 751.938 1639.54 750.669 1638.2 749.776C1636.86 748.883 1635.29 748.408 1633.68 748.41C1631.53 748.413 1629.46 749.269 1627.94 750.791C1626.42 752.313 1625.56 754.377 1625.56 756.53V756.53Z" fill="black"/>
<path d="M1647.74 662C1665.48 645.12 1697.42 637.72 1718.31 646.91C1746.06 659.12 1774.5 715.91 1756.6 753.64C1719.9 750.56 1670.6 722.76 1647.76 699.28C1634.74 710.837 1620.42 720.846 1605.1 729.11C1602.67 711.21 1639.52 665.58 1647.74 662Z" fill="black"/>
<path d="M1737.18 748.3C1728.06 756.13 1725.88 768.53 1732.29 775.99C1738.7 783.45 1751.29 783.13 1760.4 775.3C1769.51 767.47 1771.7 755.06 1765.29 747.61C1758.88 740.16 1746.29 740.46 1737.18 748.3Z" fill="#F37A50"/>
<path d="M1743.81 773.16C1743.43 773 1743.08 772.754 1742.81 772.44C1738.94 767.78 1738.33 762.36 1741.18 757.94C1742.6 755.731 1744.68 754.02 1747.12 753.045C1749.56 752.07 1752.25 751.879 1754.8 752.5C1755.15 752.574 1755.48 752.72 1755.78 752.927C1756.07 753.135 1756.32 753.4 1756.5 753.707C1756.69 754.014 1756.81 754.355 1756.86 754.711C1756.91 755.066 1756.89 755.428 1756.79 755.774C1756.69 756.12 1756.53 756.443 1756.3 756.723C1756.08 757.002 1755.8 757.233 1755.48 757.4C1755.16 757.567 1754.81 757.668 1754.46 757.695C1754.1 757.723 1753.74 757.677 1753.4 757.56C1751.93 757.253 1750.39 757.397 1749 757.973C1747.61 758.549 1746.43 759.531 1745.6 760.79C1744.01 763.25 1744.45 766.19 1746.85 769.08C1747.23 769.534 1747.45 770.103 1747.46 770.695C1747.48 771.288 1747.29 771.868 1746.94 772.341C1746.58 772.815 1746.08 773.153 1745.5 773.302C1744.93 773.451 1744.32 773.401 1743.78 773.16H1743.81Z" fill="#DE623C"/>
<path d="M1856 1491.41C1803 1426 1841.82 1194.08 1745.92 1123.34L1581.13 1136.75C1526.13 1208.04 1564.26 1360.59 1519.07 1505.94C1596.7 1533.64 1717 1534.9 1856 1491.41Z" fill="#3F964F"/>
<path d="M1788.37 1145.05L1778.69 1148.92C1778.69 1148.92 1768.6 1132.87 1758.37 1133.39L1763.47 1148.71C1763.47 1148.71 1757.68 1166.63 1726.68 1164.58C1700.2 1170.58 1718.68 1183.17 1711.4 1188.2C1700.58 1195.62 1730.92 1213.84 1756.47 1205.98C1789.54 1195.81 1811.03 1164.58 1811.03 1164.58L1788.37 1145.05Z" fill="#F37A50"/>
<path d="M1788.37 1145.05L1845 1062.2C1845 1062.2 1858.36 1030.41 1908.53 1048.41C1910.96 1075.41 1891.42 1113.8 1801.94 1172.99C1798.16 1163.34 1793.62 1153.99 1788.37 1145.05V1145.05Z" fill="#F37A50"/>
<path d="M1788.37 887.39C1788.37 887.39 1869.29 934.79 1908.48 1048.39C1873.28 1087.39 1840.58 1055.28 1840.58 1055.28L1765.23 980.83C1765.23 980.83 1742.23 952.52 1753.23 917.94C1762.81 887.84 1788.37 887.39 1788.37 887.39Z" fill="#F37A50"/>
<path d="M1642 881.71C1642 883.229 1641.55 884.714 1640.71 885.977C1639.86 887.24 1638.66 888.224 1637.26 888.805C1635.86 889.387 1634.31 889.539 1632.82 889.242C1631.33 888.946 1629.96 888.215 1628.89 887.141C1627.82 886.066 1627.08 884.698 1626.79 883.208C1626.49 881.719 1626.64 880.174 1627.22 878.771C1627.81 877.368 1628.79 876.168 1630.05 875.324C1631.32 874.48 1632.8 874.03 1634.32 874.03C1636.36 874.03 1638.31 874.839 1639.75 876.279C1641.19 877.72 1642 879.673 1642 881.71Z" fill="white"/>
<path d="M1642 897.05C1642 898.569 1641.55 900.055 1640.71 901.319C1639.87 902.584 1638.67 903.57 1637.27 904.152C1635.86 904.735 1634.32 904.889 1632.83 904.594C1631.34 904.298 1629.97 903.568 1628.89 902.494C1627.82 901.42 1627.09 900.052 1626.79 898.562C1626.49 897.072 1626.64 895.527 1627.22 894.123C1627.8 892.719 1628.79 891.519 1630.05 890.675C1631.32 889.831 1632.8 889.38 1634.32 889.38C1636.36 889.38 1638.31 890.188 1639.75 891.626C1641.19 893.064 1642 895.015 1642 897.05V897.05Z" fill="white"/>
<path d="M1644.51 911C1644.51 912.519 1644.06 914.005 1643.22 915.27C1642.38 916.534 1641.18 917.52 1639.78 918.103C1638.37 918.685 1636.83 918.839 1635.34 918.544C1633.85 918.249 1632.48 917.518 1631.4 916.444C1630.33 915.37 1629.6 914.002 1629.3 912.512C1629 911.022 1629.15 909.477 1629.73 908.073C1630.31 906.669 1631.3 905.469 1632.56 904.625C1633.83 903.781 1635.31 903.33 1636.83 903.33C1637.84 903.329 1638.84 903.526 1639.77 903.911C1640.7 904.296 1641.55 904.861 1642.26 905.573C1642.97 906.285 1643.54 907.131 1643.93 908.063C1644.31 908.994 1644.51 909.992 1644.51 911V911Z" fill="white"/>
<path d="M1653.37 922.06C1653.37 923.576 1652.92 925.058 1652.07 926.318C1651.23 927.578 1650.03 928.56 1648.63 929.139C1647.23 929.718 1645.68 929.868 1644.2 929.571C1642.71 929.274 1641.34 928.543 1640.27 927.47C1639.2 926.397 1638.47 925.03 1638.18 923.543C1637.88 922.055 1638.03 920.513 1638.61 919.112C1639.2 917.711 1640.18 916.514 1641.44 915.672C1642.7 914.829 1644.18 914.38 1645.7 914.38C1646.71 914.38 1647.71 914.579 1648.64 914.965C1649.57 915.351 1650.41 915.917 1651.13 916.63C1651.84 917.343 1652.4 918.19 1652.79 919.122C1653.17 920.053 1653.37 921.052 1653.37 922.06V922.06Z" fill="white"/>
<path d="M1660.28 934.06C1664.52 934.06 1667.95 930.626 1667.95 926.39C1667.95 922.154 1664.52 918.72 1660.28 918.72C1656.04 918.72 1652.61 922.154 1652.61 926.39C1652.61 930.626 1656.04 934.06 1660.28 934.06Z" fill="white"/>
<path d="M1682.27 922.06C1682.27 923.579 1681.82 925.065 1680.97 926.328C1680.13 927.591 1678.93 928.575 1677.53 929.156C1676.12 929.737 1674.58 929.889 1673.09 929.592C1671.6 929.294 1670.23 928.562 1669.16 927.487C1668.08 926.412 1667.35 925.042 1667.06 923.552C1666.76 922.062 1666.91 920.517 1667.5 919.114C1668.08 917.711 1669.07 916.512 1670.33 915.669C1671.59 914.827 1673.08 914.378 1674.6 914.38C1676.64 914.383 1678.59 915.193 1680.02 916.633C1681.46 918.073 1682.27 920.025 1682.27 922.06Z" fill="white"/>
<path d="M1694.85 914.38C1694.85 915.899 1694.4 917.385 1693.56 918.649C1692.72 919.914 1691.52 920.9 1690.12 921.482C1688.71 922.065 1687.17 922.219 1685.68 921.924C1684.19 921.628 1682.82 920.898 1681.74 919.824C1680.67 918.75 1679.94 917.382 1679.64 915.892C1679.34 914.402 1679.49 912.857 1680.07 911.453C1680.65 910.049 1681.64 908.849 1682.9 908.005C1684.17 907.161 1685.65 906.71 1687.17 906.71C1689.21 906.71 1691.16 907.518 1692.6 908.956C1694.04 910.394 1694.85 912.345 1694.85 914.38V914.38Z" fill="white"/>
<path d="M1705 904.73C1705 906.247 1704.55 907.729 1703.7 908.989C1702.86 910.249 1701.66 911.23 1700.26 911.809C1698.86 912.388 1697.31 912.539 1695.83 912.241C1694.34 911.944 1692.97 911.213 1691.9 910.14C1690.83 909.067 1690.1 907.7 1689.81 906.213C1689.51 904.725 1689.66 903.184 1690.24 901.783C1690.83 900.382 1691.81 899.184 1693.07 898.342C1694.33 897.5 1695.81 897.05 1697.33 897.05C1698.34 897.05 1699.34 897.249 1700.27 897.635C1701.2 898.021 1702.04 898.587 1702.76 899.3C1703.47 900.013 1704.03 900.86 1704.42 901.792C1704.8 902.724 1705 903.722 1705 904.73V904.73Z" fill="white"/>
<path d="M1715.43 895.06C1715.43 896.58 1714.98 898.065 1714.14 899.33C1713.3 900.594 1712.1 901.58 1710.7 902.163C1709.29 902.745 1707.75 902.899 1706.26 902.604C1704.77 902.309 1703.4 901.578 1702.32 900.504C1701.25 899.431 1700.52 898.062 1700.22 896.572C1699.92 895.082 1700.07 893.537 1700.65 892.133C1701.23 890.73 1702.22 889.529 1703.48 888.685C1704.75 887.841 1706.23 887.39 1707.75 887.39C1708.76 887.389 1709.76 887.586 1710.69 887.971C1711.62 888.356 1712.47 888.921 1713.18 889.633C1713.89 890.345 1714.46 891.191 1714.85 892.123C1715.23 893.054 1715.43 894.052 1715.43 895.06V895.06Z" fill="white"/>
<path d="M1723.1 883.5C1723.1 885.019 1722.65 886.505 1721.8 887.768C1720.96 889.031 1719.76 890.015 1718.36 890.596C1716.95 891.177 1715.41 891.329 1713.92 891.032C1712.43 890.735 1711.06 890.002 1709.99 888.927C1708.91 887.852 1708.18 886.483 1707.89 884.992C1707.59 883.502 1707.74 881.957 1708.33 880.554C1708.91 879.151 1709.9 877.952 1711.16 877.11C1712.42 876.267 1713.91 875.818 1715.43 875.82C1716.44 875.819 1717.44 876.017 1718.37 876.402C1719.3 876.788 1720.15 877.354 1720.86 878.067C1721.57 878.781 1722.14 879.628 1722.52 880.56C1722.91 881.493 1723.1 882.492 1723.1 883.5V883.5Z" fill="white"/>
<path d="M1728.06 870.83C1728.06 872.349 1727.61 873.835 1726.77 875.099C1725.93 876.364 1724.73 877.35 1723.33 877.932C1721.92 878.515 1720.38 878.669 1718.89 878.374C1717.4 878.078 1716.03 877.348 1714.95 876.274C1713.88 875.2 1713.15 873.832 1712.85 872.342C1712.55 870.852 1712.7 869.307 1713.28 867.903C1713.86 866.499 1714.85 865.299 1716.11 864.455C1717.38 863.611 1718.86 863.16 1720.38 863.16C1721.39 863.159 1722.39 863.356 1723.32 863.741C1724.25 864.126 1725.1 864.691 1725.81 865.403C1726.52 866.115 1727.09 866.961 1727.48 867.892C1727.86 868.824 1728.06 869.822 1728.06 870.83V870.83Z" fill="white"/>
<path d="M2773.18 1949.38H464.18C460.564 1949.38 457.097 1947.94 454.542 1945.38C451.986 1942.82 450.55 1939.36 450.55 1935.74V1935.74C450.55 1932.12 451.986 1928.66 454.542 1926.1C457.097 1923.54 460.564 1922.1 464.18 1922.1H2773.18C2776.8 1922.1 2780.27 1923.54 2782.82 1926.1C2785.38 1928.65 2786.82 1932.12 2786.82 1935.74V1935.74C2786.82 1939.36 2785.38 1942.83 2782.82 1945.39C2780.27 1947.94 2776.8 1949.38 2773.18 1949.38V1949.38Z" fill="#201D40"/>
<path d="M2254.4 1460.43H1081C1053.42 1460.43 1031.06 1445.43 1031.06 1426.83C1031.06 1408.27 1053.42 1393.22 1081 1393.22H2254.4C2281.98 1393.22 2304.34 1408.22 2304.34 1426.83C2304.34 1445.38 2282 1460.43 2254.4 1460.43Z" fill="#95A6DB"/>
<path d="M1520.78 1933.93C1517.93 1933.93 1515.13 1933.16 1512.68 1931.7C1510.22 1930.24 1508.21 1928.14 1506.85 1925.64C1505.49 1923.13 1504.84 1920.3 1504.95 1917.45C1505.07 1914.6 1505.95 1911.83 1507.51 1909.44L1817.34 1434.65L1843.86 1451.96L1534 1926.75C1532.56 1928.95 1530.6 1930.76 1528.3 1932.01C1525.99 1933.26 1523.41 1933.92 1520.78 1933.93V1933.93Z" fill="#95A6DB"/>
<path d="M1814.62 1933.93C1817.47 1933.93 1820.27 1933.16 1822.72 1931.7C1825.17 1930.24 1827.18 1928.14 1828.54 1925.63C1829.9 1923.12 1830.55 1920.3 1830.44 1917.45C1830.32 1914.6 1829.44 1911.83 1827.88 1909.44L1518.06 1434.65L1491.53 1452L1801.36 1926.79C1802.8 1928.99 1804.77 1930.79 1807.09 1932.04C1809.4 1933.28 1811.99 1933.93 1814.62 1933.93V1933.93Z" fill="#95A6DB"/>
<path d="M2301.11 1926.41C2297.09 1926.41 2293.23 1924.81 2290.39 1921.96C2287.55 1919.12 2285.95 1915.26 2285.95 1911.24V1642.49H2316.28V1911.24C2316.28 1915.26 2314.68 1919.12 2311.84 1921.97C2308.99 1924.81 2305.13 1926.41 2301.11 1926.41V1926.41Z" fill="#768FDB"/>
<path d="M2407.55 1926.41C2403.53 1926.41 2399.67 1924.81 2396.82 1921.97C2393.98 1919.12 2392.38 1915.26 2392.38 1911.24V1642.49H2422.72V1911.24C2422.72 1915.26 2421.12 1919.12 2418.28 1921.97C2415.43 1924.81 2411.57 1926.41 2407.55 1926.41V1926.41Z" fill="#768FDB"/>
<path d="M2547.21 1926.41C2543.19 1926.41 2539.33 1924.81 2536.48 1921.97C2533.64 1919.12 2532.04 1915.26 2532.04 1911.24V1642.49H2562.38V1911.24C2562.38 1915.26 2560.78 1919.12 2557.94 1921.97C2555.09 1924.81 2551.23 1926.41 2547.21 1926.41V1926.41Z" fill="#768FDB"/>
<path d="M2653.64 1926.41C2649.62 1926.41 2645.76 1924.81 2642.92 1921.96C2640.08 1919.12 2638.48 1915.26 2638.48 1911.24V1642.49H2668.81V1911.24C2668.81 1915.26 2667.21 1919.12 2664.37 1921.97C2661.52 1924.81 2657.66 1926.41 2653.64 1926.41V1926.41Z" fill="#768FDB"/>
<path d="M2485.82 1243.65V1563.46C2485.82 1565.21 2485.13 1566.88 2483.89 1568.12C2482.65 1569.36 2480.98 1570.05 2479.23 1570.05H2280.94C2276.18 1570.05 2271.47 1570.98 2267.08 1572.8C2262.68 1574.62 2258.69 1577.29 2255.32 1580.65C2251.96 1584.02 2249.29 1588.01 2247.47 1592.41C2245.65 1596.8 2244.71 1601.51 2244.71 1606.27C2244.71 1615.88 2248.53 1625.09 2255.32 1631.88C2262.12 1638.67 2271.33 1642.49 2280.94 1642.49H2522C2531.61 1642.49 2540.82 1638.67 2547.61 1631.88C2554.4 1625.09 2558.22 1615.88 2558.22 1606.27V1243.65C2558.22 1238.89 2557.29 1234.18 2555.47 1229.79C2553.65 1225.39 2550.98 1221.4 2547.61 1218.03C2544.25 1214.67 2540.26 1212 2535.86 1210.18C2531.47 1208.36 2526.76 1207.42 2522 1207.42C2512.4 1207.43 2503.2 1211.25 2496.41 1218.05C2489.63 1224.84 2485.82 1234.05 2485.82 1243.65V1243.65Z" fill="#95A6DB"/>
<path d="M2678.82 1207.42H2522.04V1575.92H2678.82V1207.42Z" fill="#95A6DB"/>
<path d="M2642.59 1243.65V1563.46C2642.59 1565.21 2641.9 1566.88 2640.66 1568.12C2639.42 1569.36 2637.75 1570.05 2636 1570.05H2437.71C2428.1 1570.05 2418.89 1573.87 2412.1 1580.66C2405.31 1587.45 2401.49 1596.66 2401.49 1606.27V1606.27C2401.49 1615.88 2405.31 1625.09 2412.1 1631.88C2418.89 1638.67 2428.1 1642.49 2437.71 1642.49H2678.81C2688.42 1642.49 2697.63 1638.67 2704.43 1631.88C2711.22 1625.09 2715.04 1615.88 2715.04 1606.27V1243.65C2715.04 1234.04 2711.22 1224.83 2704.43 1218.03C2697.63 1211.24 2688.42 1207.42 2678.81 1207.42C2669.2 1207.42 2659.99 1211.24 2653.2 1218.03C2646.41 1224.83 2642.59 1234.04 2642.59 1243.65V1243.65Z" fill="#768FDB"/>
<path d="M1019.43 1926.41C1023.45 1926.41 1027.31 1924.81 1030.16 1921.97C1033 1919.12 1034.6 1915.26 1034.6 1911.24V1642.49H1004.26V1911.24C1004.26 1915.26 1005.86 1919.12 1008.7 1921.97C1011.55 1924.81 1015.41 1926.41 1019.43 1926.41V1926.41Z" fill="#768FDB"/>
<path d="M913 1926.41C917.023 1926.41 920.882 1924.81 923.727 1921.97C926.572 1919.12 928.17 1915.26 928.17 1911.24V1642.49H897.83V1911.24C897.83 1915.26 899.428 1919.12 902.273 1921.97C905.118 1924.81 908.977 1926.41 913 1926.41V1926.41Z" fill="#768FDB"/>
<path d="M773.33 1926.41C777.353 1926.41 781.212 1924.81 784.057 1921.97C786.902 1919.12 788.5 1915.26 788.5 1911.24V1642.49H758.17V1911.24C758.17 1915.26 759.767 1919.12 762.61 1921.96C765.452 1924.81 769.308 1926.41 773.33 1926.41V1926.41Z" fill="#768FDB"/>
<path d="M666.9 1926.41C670.923 1926.41 674.782 1924.81 677.627 1921.97C680.472 1919.12 682.07 1915.26 682.07 1911.24V1642.49H651.73V1911.24C651.73 1915.26 653.328 1919.12 656.173 1921.97C659.018 1924.81 662.877 1926.41 666.9 1926.41V1926.41Z" fill="#768FDB"/>
<path d="M834.73 1243.65V1563.46C834.73 1565.21 835.424 1566.88 836.66 1568.12C837.896 1569.36 839.572 1570.05 841.32 1570.05H1039.6C1044.36 1570.05 1049.07 1570.98 1053.46 1572.8C1057.86 1574.62 1061.85 1577.29 1065.22 1580.65C1068.58 1584.02 1071.25 1588.01 1073.07 1592.41C1074.89 1596.8 1075.83 1601.51 1075.83 1606.27C1075.83 1615.88 1072.01 1625.09 1065.21 1631.88C1058.42 1638.67 1049.21 1642.49 1039.6 1642.49H798.5C788.894 1642.49 779.681 1638.67 772.889 1631.88C766.096 1625.09 762.28 1615.88 762.28 1606.27V1243.65C762.28 1234.04 766.096 1224.83 772.888 1218.03C779.68 1211.24 788.893 1207.42 798.5 1207.42C808.109 1207.42 817.324 1211.24 824.118 1218.03C830.913 1224.83 834.73 1234.04 834.73 1243.65V1243.65Z" fill="#95A6DB"/>
<path d="M641.73 1575.92H798.5V1207.42H641.73V1575.92Z" fill="#95A6DB"/>
<path d="M678 1243.65V1563.46C678 1564.33 678.17 1565.18 678.502 1565.98C678.833 1566.78 679.318 1567.51 679.93 1568.12C680.542 1568.73 681.269 1569.22 682.068 1569.55C682.868 1569.88 683.725 1570.05 684.59 1570.05H882.83C887.587 1570.05 892.297 1570.98 896.692 1572.8C901.087 1574.62 905.081 1577.29 908.444 1580.66C911.808 1584.02 914.476 1588.01 916.296 1592.41C918.115 1596.8 919.051 1601.51 919.05 1606.27V1606.27C919.05 1615.88 915.234 1625.09 908.441 1631.88C901.649 1638.67 892.436 1642.49 882.83 1642.49H641.73C632.123 1642.49 622.909 1638.67 616.115 1631.88C609.321 1625.09 605.503 1615.88 605.5 1606.27V1243.65C605.5 1234.04 609.317 1224.83 616.112 1218.03C622.906 1211.24 632.121 1207.42 641.73 1207.42C646.491 1207.41 651.207 1208.35 655.607 1210.17C660.007 1211.98 664.006 1214.65 667.374 1218.02C670.743 1221.38 673.415 1225.38 675.238 1229.78C677.062 1234.17 678 1238.89 678 1243.65V1243.65Z" fill="#768FDB"/>
<path d="M2405.13 1121.42C2371.67 1109.36 2319.99 1082.97 2354.34 1034.75C2388.69 986.53 2387.8 1007.57 2375.44 949C2363.08 890.43 2404.73 844.36 2444.44 856C2484.15 867.64 2494.28 899.78 2542.95 891.65C2591.62 883.52 2632.06 929.04 2613.75 968.51C2595.44 1007.98 2587.6 1026.99 2604.75 1048.84C2621.9 1070.69 2699.06 1094.22 2666.87 1146.56C2634.68 1198.9 2619.93 1195.69 2631.11 1222.56C2642.29 1249.43 2616.5 1279.94 2571.75 1275.77C2527 1271.6 2486.5 1254.68 2470.09 1204.77C2453.68 1154.86 2405.13 1121.42 2405.13 1121.42Z" fill="#2C2858"/>
<path d="M2286.77 1882.25L2260.33 1890.15L2240.43 1869.79C2241.43 1868.38 2240.43 1854.79 2237.43 1840.22L2286.82 1832.02C2288.74 1847.07 2286.77 1867.05 2286.77 1882.25Z" fill="#F37A50"/>
<path d="M2260.53 1885.39C2254.24 1868.89 2240.81 1867.05 2240.81 1867.05C2214.69 1901.89 2150.56 1880.51 2152.68 1927.63C2250.21 1927.02 2290.74 1927.63 2290.74 1927.63C2290.61 1916.81 2288.74 1891.12 2286.44 1881.07L2281.35 1881.97L2260.53 1885.39Z" fill="#E62552"/>
<path d="M2110.94 1887.17L2083.42 1889.05L2067.59 1872.19C2068.83 1871.02 2071.82 1850.19 2072.02 1835.3L2118.42 1837.36C2117 1852.48 2114.29 1872.34 2110.94 1887.17Z" fill="#F37A50"/>
<path d="M2086.41 1885.39C2080.13 1868.89 2066.69 1867.05 2066.69 1867.05C2040.57 1901.89 1976.44 1880.51 1978.56 1927.63C2076.09 1927.02 2116.63 1927.63 2116.63 1927.63C2116.5 1916.81 2114.57 1891.12 2112.32 1881.07L2107.24 1881.97L2086.41 1885.39Z" fill="#E62552"/>
<path d="M2389.31 1426.9C2314.17 1437.01 2102.49 1515.45 2090.69 1529.65C2066.32 1558.96 2079.17 1718.47 2067.59 1850.09L2129.12 1853.72C2158.59 1746.53 2156.24 1700.27 2169.57 1577.33C2169.57 1577.33 2411.41 1595.44 2498.79 1536.46C2588.89 1475.64 2450.07 1412.48 2389.31 1426.9Z" fill="#0E6A41"/>
<path d="M2291.38 1270.64C2309.14 1273.64 2315.98 1287.91 2320.26 1314.15C2252.61 1354.01 2152.11 1356.85 2152.11 1356.85L2120.11 1341C2120.11 1341 2200.66 1312 2291.38 1270.64Z" fill="#DE623C"/>
<path d="M2476.37 1195.64C2446.77 1238.64 2333.37 1331.18 2314.57 1334.09L2291.83 1270.44C2291.83 1270.44 2402.56 1150.58 2422.72 1129.44C2457.55 1092.64 2524.84 1125.49 2476.37 1195.64Z" fill="#DE623C"/>
<path d="M2351.64 1188.75C2375.39 1163.17 2406.31 1105.43 2446.54 1109.54C2486.77 1113.65 2489.69 1156.34 2477.54 1179.33C2465.39 1202.32 2423.54 1258.98 2423.54 1258.98L2351.64 1188.75Z" fill="#FF4F78"/>
<path d="M2358.93 1297C2375.99 1302.88 2385.72 1356.6 2380.93 1360.71C2307.81 1389.71 2155.68 1358.35 2155.68 1358.35L2147.6 1330.8C2147.6 1330.8 2262.8 1323.72 2358.93 1297Z" fill="#F37A50"/>
<path d="M2599.51 1472.06C2582.79 1385.79 2575.58 1355.22 2568.63 1314.62C2551.47 1214.29 2601.94 1143.77 2515.42 1095.69L2452.35 1105.85C2401.35 1159.5 2369.97 1208.19 2367.28 1241.85C2363.58 1285.24 2406.63 1308.78 2406.63 1308.78L2389.31 1426.92C2389.31 1426.92 2385.23 1436.56 2456.31 1449.99C2527.39 1463.42 2599.51 1472.06 2599.51 1472.06Z" fill="#E62552"/>
<path d="M2547.67 1207.88C2518.06 1251.4 2391.55 1362 2372.54 1362.98L2358.93 1296.98C2358.93 1296.98 2473.86 1162.3 2494 1140.87C2528.84 1103.68 2596.14 1136.92 2547.67 1207.88Z" fill="#F37A50"/>
<path d="M2426.72 1208.18C2448.81 1176.04 2493.38 1116.73 2533.62 1120.83C2573.86 1124.93 2576.76 1167.64 2564.62 1190.63C2552.48 1213.62 2510.62 1270.28 2510.62 1270.28L2426.72 1208.18Z" fill="#FF4F78"/>
<path d="M2147.61 1330.78C2124.35 1325.06 2073.78 1308.07 2053.42 1361.33C2058.53 1371.11 2077.25 1346.97 2085.29 1344.74C2098.06 1341.19 2109.01 1347.89 2118.67 1357.13C2132.53 1370.37 2155.67 1358.33 2155.67 1358.33L2147.61 1330.78Z" fill="#F37A50"/>
<path d="M2129.51 1392.66H1911V1363.32H2158.83C2158.83 1371.1 2155.74 1378.56 2150.24 1384.06C2144.75 1389.56 2137.29 1392.65 2129.51 1392.66V1392.66Z" fill="#FF4F78"/>
<path d="M1798.67 1208.36L1911 1392.66L1937 1379.01L1811 1168.74C1807.59 1170.53 1804.56 1172.98 1802.1 1175.94C1799.63 1178.9 1797.77 1182.32 1796.63 1186C1795.48 1189.68 1795.08 1193.54 1795.43 1197.38C1795.78 1201.22 1796.88 1204.95 1798.67 1208.36V1208.36Z" fill="#FF4F78"/>
<path d="M2544.28 1013.5C2533.65 1057.87 2496.79 1087.08 2461.94 1078.73C2427.09 1070.38 2407.45 1027.65 2418.07 983.28C2428.69 938.91 2465.56 909.7 2500.41 918.04C2535.26 926.38 2554.9 969.12 2544.28 1013.5Z" fill="#F37A50"/>
<path d="M2527.39 1036.87L2469.48 1072.77C2469.48 1072.77 2464.34 1098.36 2461.78 1106.67C2456.48 1123.8 2476.78 1131.29 2493.91 1120.62C2511.04 1109.95 2515.42 1095.69 2515.42 1095.69L2527.39 1036.87Z" fill="#F37A50"/>
<path d="M2414.09 966.33C2430.54 967.75 2466.2 964.89 2479.2 949.47C2488.47 980.78 2527.88 1010.58 2560.47 1024.55C2561.78 992.43 2561.54 933.34 2503.96 908.79C2458.73 889.5 2414.09 966.33 2414.09 966.33Z" fill="#2C2858"/>
<path d="M2434.41 994.93C2433.86 996.034 2433 996.95 2431.93 997.564C2430.86 998.177 2429.64 998.46 2428.41 998.376C2427.18 998.292 2426 997.846 2425.02 997.093C2424.05 996.34 2423.32 995.315 2422.93 994.147C2422.53 992.979 2422.49 991.721 2422.82 990.532C2423.14 989.342 2423.81 988.275 2424.73 987.465C2425.66 986.655 2426.81 986.139 2428.03 985.981C2429.26 985.824 2430.5 986.032 2431.6 986.58C2432.33 986.943 2432.99 987.447 2433.53 988.063C2434.07 988.68 2434.48 989.396 2434.74 990.172C2435 990.948 2435.1 991.767 2435.05 992.584C2434.99 993.4 2434.77 994.198 2434.41 994.93V994.93Z" fill="black"/>
<path d="M2483.35 1007C2482.76 1008.2 2481.82 1009.19 2480.67 1009.86C2479.51 1010.52 2478.18 1010.83 2476.85 1010.74C2475.51 1010.65 2474.24 1010.16 2473.18 1009.34C2472.13 1008.53 2471.34 1007.41 2470.91 1006.15C2470.49 1004.88 2470.45 1003.51 2470.81 1002.23C2471.16 1000.94 2471.89 999.785 2472.9 998.912C2473.91 998.039 2475.16 997.487 2476.49 997.324C2477.81 997.162 2479.16 997.397 2480.35 998C2481.94 998.802 2483.14 1000.2 2483.7 1001.88C2484.26 1003.57 2484.14 1005.41 2483.35 1007Z" fill="black"/>
<path d="M2490.81 1001.42C2490.33 1001.18 2489.95 1000.79 2489.73 1000.31C2486.35 993.02 2477.22 991.6 2477.12 991.58C2476.5 991.491 2475.95 991.162 2475.58 990.664C2475.21 990.166 2475.05 989.54 2475.13 988.925C2475.22 988.31 2475.55 987.755 2476.05 987.383C2476.55 987.01 2477.17 986.851 2477.79 986.94C2478.26 987 2489.52 988.7 2493.99 998.34C2494.19 998.781 2494.25 999.274 2494.16 999.751C2494.07 1000.23 2493.83 1000.66 2493.49 1001C2493.14 1001.34 2492.69 1001.56 2492.21 1001.63C2491.74 1001.71 2491.24 1001.63 2490.81 1001.42V1001.42Z" fill="#2C2858"/>
<path d="M2420.81 985.9C2420.58 985.784 2420.37 985.632 2420.19 985.45C2419.75 985.01 2419.5 984.412 2419.5 983.79C2419.5 983.168 2419.75 982.571 2420.19 982.13C2422.31 980.057 2424.94 978.592 2427.82 977.888C2430.69 977.185 2433.71 977.268 2436.54 978.13C2437.1 978.356 2437.55 978.786 2437.8 979.333C2438.05 979.879 2438.08 980.501 2437.88 981.07C2437.69 981.638 2437.28 982.111 2436.75 982.39C2436.22 982.669 2435.6 982.733 2435.02 982.57C2433.01 981.99 2430.89 981.954 2428.86 982.465C2426.84 982.976 2424.98 984.017 2423.49 985.48C2423.14 985.818 2422.7 986.041 2422.22 986.116C2421.74 986.191 2421.25 986.116 2420.81 985.9V985.9Z" fill="#2C2858"/>
<path d="M2438.41 1008.49C2435 1012 2432 1015.63 2428.73 1017.69C2428.2 1018.03 2427.82 1018.56 2427.67 1019.17C2427.52 1019.79 2427.61 1020.43 2427.92 1020.98C2430.55 1025.65 2438.25 1029.5 2442.92 1031.51C2443.06 1031.57 2443.23 1031.58 2443.38 1031.54C2443.53 1031.49 2443.66 1031.39 2443.74 1031.26C2443.82 1031.13 2443.86 1030.97 2443.84 1030.81C2443.81 1030.66 2443.74 1030.51 2443.62 1030.41C2438.85 1026.23 2436.8 1023.15 2435.94 1021.41C2435.73 1021 2435.63 1020.54 2435.63 1020.08C2435.63 1019.61 2435.73 1019.15 2435.94 1018.74C2436.94 1016.81 2438.87 1012.88 2440.18 1009.62C2440.23 1009.4 2440.22 1009.16 2440.13 1008.94C2440.04 1008.73 2439.89 1008.55 2439.7 1008.42C2439.5 1008.3 2439.27 1008.24 2439.04 1008.25C2438.81 1008.26 2438.59 1008.35 2438.41 1008.49V1008.49Z" fill="#DE623C"/>
<path d="M2527.51 1013.78C2519.04 1020.37 2516.51 1031.33 2521.94 1038.26C2527.37 1045.19 2538.56 1045.46 2547.03 1038.88C2555.5 1032.3 2558.03 1021.33 2552.6 1014.4C2547.17 1007.47 2536 1007.19 2527.51 1013.78Z" fill="#F37A50"/>
<path d="M2532.33 1036.25C2532 1036.09 2531.72 1035.85 2531.5 1035.55C2528.25 1031.23 2527.94 1026.37 2530.68 1022.55C2532.05 1020.65 2533.98 1019.21 2536.2 1018.45C2538.42 1017.69 2540.82 1017.64 2543.07 1018.3C2543.65 1018.5 2544.13 1018.93 2544.4 1019.48C2544.67 1020.03 2544.71 1020.67 2544.52 1021.26C2544.32 1021.84 2543.91 1022.33 2543.36 1022.61C2542.81 1022.89 2542.18 1022.94 2541.59 1022.76C2540.29 1022.42 2538.92 1022.48 2537.65 1022.93C2536.38 1023.38 2535.28 1024.2 2534.49 1025.29C2532.97 1027.41 2533.24 1030.06 2535.25 1032.74C2535.56 1033.16 2535.73 1033.68 2535.71 1034.2C2535.7 1034.73 2535.5 1035.24 2535.17 1035.64C2534.83 1036.05 2534.37 1036.33 2533.85 1036.44C2533.34 1036.55 2532.8 1036.48 2532.33 1036.25V1036.25Z" fill="#DE623C"/>
<path d="M2473.38 1440.61C2398.24 1450.72 2186.25 1519.43 2174.45 1533.61C2150.08 1562.93 2204.33 1688.46 2221.69 1850.08H2294.22C2293.46 1734.92 2302.66 1628.99 2267.22 1591.45C2267.22 1591.45 2470.42 1577.89 2571.72 1577.89C2623.36 1577.9 2651.94 1403.41 2473.38 1440.61Z" fill="#3F964F"/>
<path d="M2435.24 1045.83C2435.03 1045.53 2434.92 1045.18 2434.9 1044.81C2434.89 1044.45 2434.98 1044.09 2435.17 1043.77C2435.35 1043.46 2435.62 1043.2 2435.95 1043.03C2436.27 1042.87 2436.64 1042.8 2437 1042.83C2448.95 1044.43 2461.05 1044.43 2473 1042.83C2473.36 1042.79 2473.73 1042.86 2474.06 1043.03C2474.38 1043.2 2474.65 1043.45 2474.84 1043.77C2475.02 1044.08 2475.11 1044.45 2475.1 1044.81C2475.08 1045.18 2474.96 1045.53 2474.75 1045.83C2471.66 1049.98 2465.28 1056.29 2455 1056.28C2444.72 1056.27 2438.32 1050 2435.24 1045.83Z" fill="white"/>
<path d="M992.31 1316.52C977.96 1326.07 981.94 1378.1 987.36 1380.75C1061.97 1389.87 1187.99 1328.05 1187.99 1328.05L1192.93 1300.4C1192.93 1300.4 1087.67 1318 992.31 1316.52Z" fill="#F37A50"/>
<path d="M828.37 1226.29C855.04 1268.95 971.79 1379.29 989.91 1380.88L1005.34 1318.35C1005.34 1318.35 900.54 1185.48 882.08 1164.27C850.19 1127.47 784.69 1156.74 828.37 1226.29Z" fill="#F37A50"/>
<path d="M892.18 998.37C895.38 954.7 882.76 916.12 847.94 896.47C812.64 876.56 768.43 896.09 768.43 896.09C768.43 896.09 731 882.77 697.08 920.09C663.16 957.41 688.82 990.32 674.95 1017.57C666.73 1033.71 624.95 1037.03 635.74 1089.57C638.85 1104.73 657.08 1114.93 672.53 1115.95C699.66 1117.73 724.92 1107.24 735.92 1117.73C772.16 1152.29 852.47 1139.79 863.7 1108.18C867.19 1098.38 939.43 1117.35 932.22 1050.58C928.57 1016.82 889.31 1037.4 892.18 998.37Z" fill="#2C2858"/>
<path d="M825.98 1139.55L768.62 1128.96L747.12 1157.58L792.83 1251.29L860.05 1194.22L825.98 1139.55Z" fill="#F37A50"/>
<path d="M900.33 1365.5C899.33 1347.67 928.16 1274.5 912.99 1237.59C901.99 1207.94 883.49 1158.17 860.89 1149.87C850.23 1145.95 839.27 1143.22 825.98 1139.55C825.98 1139.55 833.48 1176.91 817.86 1178.16C787.79 1180.57 768.62 1128.96 768.62 1128.96C752.41 1127.41 678.05 1151.84 678.09 1157.96C678.27 1205.78 717.09 1275.56 729.83 1327.27C734.83 1383.11 715.34 1449.94 715.27 1456.27C715.27 1456.27 834.89 1489.9 905.8 1450.86C907.28 1445.44 901.68 1390.12 900.33 1365.5Z" fill="#3F964F"/>
<path d="M733.27 1398.9C733.27 1398.9 706.86 1465.53 700.42 1507.46C693.98 1549.39 730.32 1576.31 730.32 1576.31H1032.55C1032.55 1576.31 1064.91 1523.84 1055.55 1487.61C1046.19 1451.38 1024.79 1445.61 1024.79 1445.61L733.27 1398.9Z" fill="#3F964F"/>
<path d="M1036.6 1443.76C998.01 1438.31 886.03 1481.76 838.28 1576.31H971.87L1036.6 1443.76Z" fill="#DE623C"/>
<path d="M994.28 1478.54C999.474 1472.65 1004 1466.21 1007.78 1459.33C1019.04 1439.49 1046.19 1436.14 1061.52 1453.04C1117.22 1514.45 1235.96 1654.45 1262.43 1671.87C1269.91 1676.79 1313.55 1701.92 1355.04 1696.95C1355.04 1696.95 1375.52 1704.75 1361.88 1721.01C1354.88 1729.38 1249.42 1738.01 1249.42 1738.01L1241.2 1707.01C1179.83 1661.58 1103.43 1664.85 1038.65 1581.81C1003 1536.14 994.28 1478.54 994.28 1478.54Z" fill="#DE623C"/>
<path d="M1270.78 1755.89L1313.2 1783.42L1319.04 1776.42L1284.62 1744.33C1304.17 1728.91 1349.45 1741.78 1349.45 1741.78C1364.28 1732.2 1393.19 1701.13 1396.17 1684.48C1386.67 1672.65 1355.05 1696.99 1355.05 1696.99C1356.21 1702.26 1346.22 1720.52 1338.27 1723.65C1303.73 1731.1 1269.27 1721.28 1241.2 1707.02C1241.2 1707.07 1217.73 1742.64 1270.78 1755.89Z" fill="#E62552"/>
<path d="M993.67 1486.88C989.889 1487.9 986.489 1490 983.892 1492.93C981.295 1495.86 979.615 1499.48 979.06 1503.36C976.06 1524.79 960.43 1568.2 981.54 1613.65C1033.38 1725.25 1063.98 1798.78 1069.41 1827.58C1055.88 1852.93 1109.86 1922.2 1110.67 1926.73L1149.52 1914.57C1149.52 1914.57 1127.23 1881.4 1119.2 1868.42C1100.08 1837.49 1096.95 1799.55 1093.85 1770.13C1080.58 1644.55 1103.39 1565.26 1012.53 1491.6C1007.15 1487.24 1000.35 1485.08 993.67 1486.88Z" fill="#F37A50"/>
<path d="M1050.06 1880.7L1053.89 1931.13L1062.95 1931.55L1067.6 1884.73C1091.72 1890.92 1108.94 1934.73 1108.94 1934.73C1125.55 1940.73 1167.79 1944.86 1182.84 1937.14C1186.49 1922.41 1147.95 1912.02 1147.95 1912.02C1144.46 1916.14 1123.88 1919.27 1116.58 1914.84C1089.71 1891.89 1075.1 1858.57 1069.41 1827.58C1069.41 1827.58 1028.42 1830.48 1050.06 1880.7Z" fill="#E62552"/>
<path d="M811.49 1092.71L764.91 1085.71L768.62 1128.94C768.62 1128.94 777.54 1148.52 787.88 1149.85L825.98 1139.53L811.49 1092.71Z" fill="#F37A50"/>
<path d="M721.82 1030.2C733.82 1080.41 775.56 1113.46 815 1104.02C854.44 1094.58 876.66 1046.22 864.63 996.02C852.6 945.82 810.9 912.76 771.46 922.2C732.02 931.64 709.8 980 721.82 1030.2Z" fill="#F37A50"/>
<path d="M846.15 1009.2C846.772 1010.45 847.75 1011.48 848.961 1012.17C850.171 1012.87 851.559 1013.18 852.95 1013.09C854.34 1012.99 855.671 1012.48 856.773 1011.63C857.876 1010.78 858.7 1009.61 859.143 1008.29C859.586 1006.97 859.627 1005.55 859.261 1004.2C858.896 1002.86 858.139 1001.65 857.088 1000.74C856.037 999.821 854.738 999.237 853.355 999.06C851.972 998.883 850.568 999.12 849.32 999.74C847.648 1000.58 846.376 1002.04 845.782 1003.82C845.188 1005.59 845.32 1007.52 846.15 1009.2V1009.2Z" fill="black"/>
<path d="M790.76 1022.86C791.433 1024.21 792.493 1025.34 793.804 1026.09C795.116 1026.84 796.621 1027.18 798.129 1027.08C799.636 1026.97 801.079 1026.42 802.275 1025.5C803.47 1024.57 804.365 1023.32 804.845 1021.88C805.325 1020.45 805.369 1018.91 804.972 1017.45C804.574 1015.99 803.753 1014.68 802.613 1013.69C801.472 1012.7 800.063 1012.07 798.564 1011.88C797.065 1011.69 795.542 1011.95 794.19 1012.62C793.292 1013.07 792.491 1013.69 791.832 1014.44C791.173 1015.2 790.67 1016.08 790.352 1017.03C790.033 1017.98 789.905 1018.98 789.975 1019.98C790.045 1020.99 790.312 1021.96 790.76 1022.86V1022.86Z" fill="black"/>
<path d="M782.32 1016.54C782.86 1016.27 783.293 1015.83 783.55 1015.28C787.37 1007.03 797.71 1005.42 797.81 1005.4C798.506 1005.3 799.134 1004.93 799.556 1004.37C799.978 1003.8 800.159 1003.1 800.06 1002.4C799.961 1001.7 799.589 1001.08 799.026 1000.65C798.463 1000.23 797.756 1000.05 797.06 1000.15C796.52 1000.22 783.78 1002.15 778.73 1013.05C778.582 1013.37 778.498 1013.71 778.483 1014.06C778.468 1014.4 778.522 1014.75 778.642 1015.08C778.762 1015.41 778.945 1015.71 779.182 1015.96C779.418 1016.22 779.703 1016.42 780.02 1016.57C780.38 1016.74 780.775 1016.83 781.173 1016.82C781.572 1016.82 781.964 1016.72 782.32 1016.54V1016.54Z" fill="#2C2858"/>
<path d="M861.54 999C861.798 998.867 862.034 998.695 862.24 998.49C862.738 997.991 863.018 997.315 863.018 996.61C863.018 995.905 862.738 995.229 862.24 994.73C859.848 992.381 856.868 990.72 853.613 989.922C850.358 989.123 846.947 989.215 843.74 990.19C843.148 990.47 842.68 990.958 842.426 991.562C842.172 992.165 842.149 992.841 842.362 993.46C842.575 994.079 843.009 994.598 843.58 994.917C844.152 995.236 844.821 995.333 845.46 995.19C847.724 994.538 850.121 994.499 852.405 995.077C854.689 995.655 856.779 996.829 858.46 998.48C858.853 998.88 859.362 999.146 859.916 999.24C860.469 999.333 861.037 999.249 861.54 999Z" fill="#2C2858"/>
<path d="M841.62 1024.53C845.49 1028.53 848.88 1032.62 852.62 1034.94C853.218 1035.33 853.646 1035.93 853.817 1036.62C853.988 1037.32 853.889 1038.05 853.54 1038.67C850.54 1043.96 841.84 1048.32 836.54 1050.59C836.377 1050.66 836.194 1050.67 836.025 1050.61C835.857 1050.56 835.712 1050.45 835.617 1050.3C835.523 1050.15 835.484 1049.97 835.508 1049.79C835.533 1049.62 835.618 1049.46 835.75 1049.34C841.15 1044.61 843.46 1041.13 844.44 1039.21C844.675 1038.74 844.797 1038.23 844.797 1037.71C844.797 1037.19 844.675 1036.68 844.44 1036.21C843.33 1034.02 841.13 1029.57 839.64 1025.88C839.565 1025.62 839.574 1025.35 839.663 1025.1C839.753 1024.85 839.92 1024.64 840.14 1024.49C840.359 1024.34 840.621 1024.26 840.887 1024.27C841.153 1024.28 841.409 1024.37 841.62 1024.53V1024.53Z" fill="#DE623C"/>
<path d="M740.8 1030.52C750.38 1037.98 753.2 1050.38 747.1 1058.22C741 1066.06 728.29 1066.38 718.71 1058.92C709.13 1051.46 706.3 1039.06 712.4 1031.22C718.5 1023.38 731.22 1023.07 740.8 1030.52Z" fill="#F37A50"/>
<path d="M735.35 1055.94C735.718 1055.76 736.037 1055.49 736.28 1055.16C739.96 1050.27 740.28 1044.77 737.21 1040.45C735.661 1038.3 733.483 1036.68 730.975 1035.82C728.468 1034.96 725.754 1034.89 723.21 1035.64C722.848 1035.72 722.506 1035.88 722.208 1036.1C721.91 1036.32 721.661 1036.6 721.478 1036.92C721.296 1037.25 721.183 1037.6 721.147 1037.97C721.111 1038.34 721.154 1038.71 721.271 1039.07C721.389 1039.42 721.579 1039.74 721.83 1040.02C722.08 1040.29 722.385 1040.51 722.726 1040.66C723.066 1040.8 723.433 1040.88 723.805 1040.88C724.176 1040.87 724.542 1040.79 724.88 1040.64C726.348 1040.26 727.895 1040.33 729.321 1040.84C730.748 1041.36 731.988 1042.28 732.88 1043.51C734.61 1045.91 734.31 1048.9 732.03 1051.93C731.648 1052.41 731.441 1053 731.445 1053.61C731.45 1054.22 731.664 1054.81 732.054 1055.28C732.443 1055.75 732.982 1056.07 733.581 1056.19C734.18 1056.31 734.801 1056.22 735.34 1055.93L735.35 1055.94Z" fill="#DE623C"/>
<path d="M798 1064.57C797.748 1064.23 797.602 1063.83 797.579 1063.41C797.557 1062.99 797.659 1062.58 797.873 1062.22C798.087 1061.86 798.404 1061.57 798.782 1061.39C799.161 1061.2 799.585 1061.14 800 1061.2C813.224 1062.97 826.626 1062.97 839.85 1061.2C840.261 1061.15 840.678 1061.22 841.048 1061.41C841.418 1061.6 841.726 1061.89 841.933 1062.24C842.141 1062.6 842.239 1063.01 842.215 1063.43C842.191 1063.84 842.047 1064.24 841.8 1064.57C838.38 1069.18 831.32 1076.17 819.92 1076.17C808.52 1076.17 801.44 1069.18 798 1064.57Z" fill="white"/>
<path d="M720.85 1025.76C767.92 1019.46 833.78 971.5 839.19 946.89C830.08 917.33 781.57 902.47 754.19 916.16C726.81 929.85 700.91 988.56 720.85 1025.76Z" fill="#2C2858"/>
<path d="M1161.2 1381.72C1158.21 1380.72 1155.74 1378.59 1154.31 1375.78C1152.88 1372.98 1152.61 1369.72 1153.56 1366.72L1226.22 1144.14C1227.2 1141.14 1229.33 1138.66 1232.14 1137.23C1234.96 1135.8 1238.22 1135.53 1241.22 1136.5C1244.22 1137.48 1246.7 1139.61 1248.13 1142.42C1249.56 1145.23 1249.83 1148.5 1248.86 1151.5L1176.2 1374.07C1175.22 1377.07 1173.09 1379.56 1170.28 1380.99C1167.47 1382.42 1164.2 1382.69 1161.2 1381.72V1381.72Z" fill="white"/>
<path d="M1199.79 1302L1214.6 1256.65C1214.6 1256.65 1227.43 1282.74 1214.6 1307.5C1201.77 1332.26 1189.6 1333.37 1189.6 1333.37L1199.79 1302Z" fill="#F37A50"/>
<path d="M1178.65 1289.81C1174.91 1281.01 1166.09 1258.98 1174.91 1259.08C1183.73 1259.18 1185.16 1269.88 1185.16 1269.88L1178.65 1289.81Z" fill="#F37A50"/>
<path d="M450.79 1157.27C470.79 1137.11 457.67 1116.44 457.67 1116.44C468.67 1114.09 526.48 1201.72 551.42 1257.44C594.93 1213.59 671.59 1154.37 692.32 1150.92C692.32 1150.92 720.32 1143.4 730.32 1177.22C739.32 1207.4 704.32 1228.78 704.32 1228.78C704.32 1228.78 554.69 1334.39 532.56 1325C498.12 1310.38 467 1184.64 450.79 1157.27Z" fill="#F37A50"/>
<path d="M419.55 1154.78C431.76 1155.52 446.86 1149.49 451.55 1160.43L475.65 1148.69L477.1 1134.15C456.4 1100.97 405.92 1091.55 400.92 1091.15C387.92 1090.01 381.92 1088.67 380.92 1090.4C379.92 1092.13 376.73 1103.7 395.57 1105.96C419.21 1108.8 403.51 1127.7 355.57 1109.71C343.57 1105.2 320.96 1111.05 329.13 1119.83C338.11 1129.47 364 1151.39 419.55 1154.78Z" fill="#F37A50"/>
<path d="M1642 1280.19C1642 1280.19 1618 1234.94 1608.42 1186.93C1600.08 1145.93 1600.42 1096.93 1601.49 1070.77C1601.52 1069.47 1601.98 1068.21 1602.79 1067.2C1603.6 1066.18 1604.72 1065.45 1605.98 1065.12C1607.24 1064.79 1608.57 1064.88 1609.77 1065.38C1610.98 1065.88 1611.99 1066.75 1612.65 1067.87C1627.75 1092.55 1655.04 1142.15 1661.17 1186.96C1665.56 1217.88 1668.39 1249.01 1669.65 1280.22L1642 1280.19Z" fill="#3F964F"/>
<path d="M1667.08 1280.19C1667.08 1280.19 1683.08 1224.86 1700.66 1187.96C1713.45 1161.13 1742.55 1128.96 1757.49 1113.46C1758.1 1112.82 1758.9 1112.39 1759.77 1112.24C1760.65 1112.09 1761.55 1112.23 1762.33 1112.64C1763.12 1113.04 1763.76 1113.69 1764.15 1114.48C1764.53 1115.28 1764.66 1116.18 1764.49 1117.05C1760.66 1137.51 1751.79 1177.84 1737.29 1205.38C1717.15 1243.67 1683.58 1280.19 1683.58 1280.19H1667.08Z" fill="#3F964F"/>
<path d="M1584.84 1231.11C1584.33 1230.12 1584.13 1229 1584.26 1227.89C1584.4 1226.79 1584.85 1225.75 1585.58 1224.9C1586.31 1224.06 1587.27 1223.45 1588.34 1223.16C1589.42 1222.86 1590.55 1222.9 1591.61 1223.25C1603.74 1227.34 1614.93 1233.83 1624.51 1242.32C1642.41 1258.58 1645.73 1277.11 1645.73 1277.11L1639.58 1279.18C1639.58 1279.18 1606.25 1273.11 1584.84 1231.11Z" fill="#0E6A41"/>
<path d="M1710 1101.74C1709.91 1100.48 1709.43 1099.28 1708.64 1098.3C1707.84 1097.33 1706.76 1096.62 1705.55 1096.27C1704.33 1095.93 1703.04 1095.97 1701.85 1096.39C1700.66 1096.8 1699.63 1097.58 1698.89 1098.6C1686.4 1115.97 1665.44 1150.22 1658.58 1192.2C1650 1244.58 1659.99 1280.2 1659.99 1280.2H1667.06C1667.06 1280.2 1693.06 1230.87 1703.25 1197.45C1712.85 1165.93 1711.62 1124 1710 1101.74Z" fill="#0E6A41"/>
<path d="M1683.58 1280.19C1683.58 1280.19 1698.58 1230.31 1749.79 1211.33C1750.46 1211.09 1751.18 1211.05 1751.87 1211.21C1752.56 1211.37 1753.19 1211.72 1753.68 1212.24C1754.17 1212.75 1754.51 1213.39 1754.64 1214.09C1754.78 1214.78 1754.71 1215.5 1754.44 1216.16C1747.69 1232.64 1728.44 1272 1695.92 1280.16L1683.58 1280.19Z" fill="#0E6A41"/>
<path d="M1728.93 1271.75H1610.35L1625.57 1393.24H1713.71L1728.93 1271.75Z" fill="#768FDB"/>
<path d="M1601.43 1366.76V1384.2H1606.17C1607.28 1384.2 1608.34 1384.64 1609.12 1385.42C1609.91 1386.2 1610.35 1387.26 1610.35 1388.37V1389.07C1610.35 1390.18 1609.91 1391.24 1609.12 1392.02C1608.34 1392.8 1607.28 1393.24 1606.17 1393.24H1403.83C1402.54 1393.24 1401.31 1392.73 1400.4 1391.82C1399.49 1390.91 1398.97 1389.68 1398.97 1388.39V1363.27C1398.97 1361.98 1399.49 1360.75 1400.4 1359.84C1401.31 1358.93 1402.54 1358.42 1403.83 1358.42H1606.17C1606.72 1358.42 1607.26 1358.53 1607.77 1358.73C1608.28 1358.94 1608.74 1359.25 1609.13 1359.64C1609.51 1360.03 1609.82 1360.49 1610.03 1360.99C1610.24 1361.5 1610.35 1362.04 1610.35 1362.59V1362.59C1610.35 1363.7 1609.91 1364.76 1609.12 1365.54C1608.34 1366.32 1607.28 1366.76 1606.17 1366.76H1601.43Z" fill="#E62552"/>
<path d="M1424.42 1366.76H1602V1384.19H1424.42C1423.65 1384.19 1422.91 1383.88 1422.36 1383.34C1421.82 1382.79 1421.51 1382.05 1421.51 1381.28V1369.67C1421.51 1368.9 1421.82 1368.16 1422.36 1367.61C1422.91 1367.07 1423.65 1366.76 1424.42 1366.76V1366.76Z" fill="white"/>
<path d="M1381.08 1329.11V1348.41H1376.33C1375.17 1348.47 1374.08 1348.99 1373.29 1349.86C1372.51 1350.72 1372.11 1351.86 1372.16 1353.02V1353.8C1372.11 1354.96 1372.51 1356.1 1373.29 1356.97C1374.08 1357.83 1375.17 1358.36 1376.33 1358.42H1578.68C1580.04 1358.34 1581.31 1357.74 1582.22 1356.73C1583.13 1355.72 1583.6 1354.4 1583.54 1353.04V1325.25C1583.61 1323.89 1583.13 1322.57 1582.22 1321.56C1581.31 1320.55 1580.04 1319.95 1578.68 1319.88H1376.33C1375.17 1319.94 1374.08 1320.46 1373.29 1321.33C1372.51 1322.19 1372.11 1323.33 1372.16 1324.49V1324.49C1372.11 1325.65 1372.51 1326.79 1373.29 1327.66C1374.08 1328.52 1375.17 1329.05 1376.33 1329.11H1381.08Z" fill="#3F964F"/>
<path d="M1557.93 1348.4H1380.48V1329.11H1557.93C1558.74 1329.11 1559.52 1329.43 1560.09 1330.01C1560.67 1330.58 1560.99 1331.36 1560.99 1332.17V1345.34C1560.99 1346.15 1560.67 1346.93 1560.09 1347.5C1559.52 1348.08 1558.74 1348.4 1557.93 1348.4V1348.4Z" fill="white"/>
<path d="M1394.72 1270.71H1581.87C1583.48 1270.71 1585.02 1271.35 1586.16 1272.48C1587.29 1273.62 1587.93 1275.16 1587.93 1276.77V1295.93C1587.93 1297.54 1587.29 1299.08 1586.15 1300.22C1585.01 1301.36 1583.47 1302 1581.86 1302H1394.72C1393.11 1302 1391.57 1301.36 1390.43 1300.23C1389.3 1299.09 1388.66 1297.55 1388.66 1295.94V1276.78C1388.66 1275.17 1389.3 1273.63 1390.43 1272.49C1391.57 1271.35 1393.11 1270.71 1394.72 1270.71V1270.71Z" fill="#E62552"/>
<path d="M1406.26 1302H1596.37C1597.58 1302 1598.75 1302.48 1599.61 1303.34C1600.47 1304.2 1600.95 1305.37 1600.95 1306.58V1315.29C1600.95 1316.5 1600.47 1317.67 1599.61 1318.53C1598.75 1319.39 1597.58 1319.87 1596.37 1319.87H1406.26C1405.04 1319.87 1403.88 1319.39 1403.01 1318.53C1402.15 1317.66 1401.67 1316.5 1401.67 1315.28V1306.57C1401.67 1305.97 1401.79 1305.37 1402.02 1304.82C1402.25 1304.26 1402.59 1303.76 1403.02 1303.33C1403.44 1302.91 1403.95 1302.57 1404.51 1302.34C1405.06 1302.12 1405.66 1302 1406.26 1302Z" fill="#768FDB"/>
</svg>
